<?xml version="1.0" encoding="utf-8" ?>
<svg xmlns="http://www.w3.org/2000/svg" xmlns:xlink="http://www.w3.org/1999/xlink" viewBox="0 0 1024 1024">
	<path fill="#415A77" transform="scale(2 2)" d="M96.9418 106.069L403.701 106.047C416.267 106.022 431.195 105.667 433.998 122.37C434.569 125.771 434.298 129.515 434.298 132.964L434.297 362.423C434.324 379.643 437.719 397.706 414.543 401.19C406.026 400.817 397.318 401.185 388.785 401.188L124.051 401.18C107.841 401.171 79.7798 405.839 78.1712 382.122C77.781 376.37 77.9847 370.508 77.9891 364.743L77.9878 135.623C77.9447 120.906 78.1726 107.259 96.9418 106.069ZM324.135 158.905L86.7488 158.905L86.7286 374.421C86.6705 392.008 91.6302 392.032 106.266 392.024L189.125 392.006L406.031 392.025C422.162 392.135 425.626 390.544 425.622 372.253L425.606 158.905L324.135 158.905ZM321.575 129.884L278.99 129.879C272.632 129.879 263.693 129.379 257.596 130.091C253.559 130.562 248.177 138.579 263.174 138.491L305.125 138.498L361.285 138.511C363.874 138.523 368.959 139.368 371.032 137.4C373.905 134.675 371.756 130.53 368.254 130.055C363.592 129.424 357.948 129.884 353.199 129.883L321.575 129.884ZM401.578 128.136C399.554 126.304 397.196 123.801 394.262 123.769C387.922 126.575 392.875 130.908 395.659 134.364C394.091 135.749 391.357 137.604 391.254 139.879C390.862 148.546 400.192 140.545 401.578 139.687C403.696 141.88 405.439 144.906 408.903 144.25C414.192 140.367 410.524 137.726 406.975 134.364C408.455 132.531 411.894 129.937 411.545 127.381C410.445 119.338 403.566 126.35 401.578 128.136ZM166.904 124.768C154.093 126.566 155.611 145.895 169.023 144.25C182.843 142.085 177.665 122.224 166.904 124.768ZM137.763 124.768C124.763 127.278 127.976 146.071 141.459 144.25C154.295 140.197 149.199 122.616 137.763 124.768ZM108.866 124.768C96.9721 129.074 99.0634 145.018 112.828 144.25C125.236 140.403 122.282 123.979 108.866 124.768ZM194.753 124.768C181.179 128.606 186.234 146.43 197.887 144.25C209.804 140.946 207.795 124.278 194.753 124.768Z"/>
	<path fill="#415A77" transform="scale(2 2)" d="M341.705 176.51C344.471 176.572 347.236 176.459 350.002 176.51C353.25 179.877 353.044 182.625 350.002 185.996C348.998 186.059 348.012 186.031 347.008 185.996C331.55 186.088 334.055 177.565 341.705 176.51Z"/>
	<path fill="#415A77" transform="scale(2 2)" d="M364.914 176.51C367.926 176.476 372.709 175.877 375.326 177.458C379.556 180.013 376.761 185.195 372.815 185.996C369.753 186.064 365.79 186.549 362.983 185.191C358.209 182.88 360.592 177.377 364.914 176.51Z"/>
	<path fill="#415A77" transform="scale(2 2)" d="M137.763 176.51C141.947 176.23 153.464 175.095 151.405 182.581C150.952 184.227 149.898 185.192 148.443 185.996C145.864 186.232 139.086 186.46 136.866 185.582C132.161 183.721 133.683 177.95 137.763 176.51Z"/>
	<path fill="#415A77" transform="scale(2 2)" d="M163.666 176.51C173.584 176.272 183.568 176.508 193.494 176.509L301.079 176.516C307.945 176.528 314.925 176.226 321.777 176.493C329.133 176.78 330.68 184.241 324.135 185.996L181.131 185.997C172.86 186 160.926 189.292 158.596 180.891C159.571 178.153 160.578 176.868 163.666 176.51Z"/>
	<path fill="#415A77" transform="scale(2 2)" d="M136.651 212.758C142.344 212.559 148.102 212.744 153.803 212.75L363.575 212.731C370.086 212.657 376.774 211.431 381.993 216.215C388.246 221.947 385.965 239.931 385.97 248.13L385.989 318.349C385.984 340.352 385.442 341.489 365.256 341.471L345.463 341.45L316.123 341.45C316.119 346.025 316.901 366.149 315.333 368.648C311.117 375.366 304.348 365.863 301.39 362.86L286.039 347.39C283.994 345.32 282.187 342.885 279.601 341.45L154.233 341.46C126.221 341.481 126.056 341.43 126.081 315.786L126.089 246.969C126.084 234.822 122.122 216.768 136.651 212.758ZM179.763 244.991C165.317 246.703 162.503 256.572 162.47 269.333C162.422 287.894 168.308 294.046 186.512 293.894L196.173 293.811C197.888 293.798 199.758 293.618 201.446 293.881C206.088 294.604 218.26 307.951 219.497 302.206C219.586 299.421 219.529 296.635 219.497 293.85C238.474 292.973 239.353 277.786 238.509 262.281C237.45 242.839 219.548 244.983 206.125 244.985L179.763 244.991ZM270.806 284.247C265.456 285.577 264.76 291.778 273.254 291.989C291.064 292.432 308.978 292.021 326.799 292.019L348.496 292.035C351.971 292.039 355.588 292.266 359.045 292.021C363.737 290.96 364.235 284.557 357.198 284.272C347.335 283.872 337.299 284.249 327.417 284.247L270.806 284.247ZM270.806 250.496C265.505 251.264 265.542 257.96 271.6 258.205C274.326 258.315 277.092 258.097 279.825 258.101L359.045 258.127C360.371 257.844 361.162 257.559 361.896 256.367C366.516 248.861 352.208 250.503 348.824 250.503L270.806 250.496ZM271.633 267.498L269.084 267.498C260.856 276.713 276.427 275.067 281.358 275.069L357.335 275.065C361.906 275.002 364.212 271.061 361.379 268.597C358.456 266.056 332.969 267.501 328.081 267.501L271.633 267.498ZM321.575 301.166L287.408 301.159C282.034 301.16 275.484 300.67 270.23 301.368C266.675 301.84 265.962 306.281 268.794 308.375C271.017 310.018 275.51 309.076 278.187 309.119L311.654 309.125C317.216 309.125 323.214 309.566 328.726 308.924C331.975 308.546 334.534 305.089 331.657 302.33C329.522 300.283 324.391 301.096 321.575 301.166Z"/>
</svg>
