<svg xmlns="http://www.w3.org/2000/svg" version="1.1" xmlns:xlink="http://www.w3.org/1999/xlink" xmlns:svgjs="http://svgjs.dev/svgjs" width="1024" height="1024"><svg viewBox="0 0 1024 1024" fill="none" xmlns="http://www.w3.org/2000/svg">
<g clip-path="url(#clip0_1743_562)">
<path d="M372.331 503.916C370.702 509.079 370.926 514.802 370.946 520.165L373.278 519.974C372.884 514.631 372.387 509.275 372.331 503.916Z" fill="#12263B"></path>
<path d="M820.3 375.882L819.302 376.298L818.988 377.497C819.488 378.83 820.175 379.819 821.395 380.583C822.824 381.478 823.569 381.326 825.177 381.056C826.449 380.523 827.416 380.465 828.043 379.186C826.525 377.667 822.944 377.106 820.884 376.156L820.3 375.882Z" fill="#F77F00"></path>
<path d="M448.762 477.873C448.636 487.717 450.019 496.378 453.247 505.686C455.149 499.829 450.65 484.088 448.762 477.873Z" fill="#415A77"></path>
<path d="M547.232 698.891C547.085 699.036 546.9 699.15 546.792 699.326C543.917 704.002 547.615 723.815 549.49 729.32L550.369 729.232C550.859 721.838 550.1 705.522 547.232 698.891Z" fill="#415A77"></path>
<path d="M592.781 653.891C592.541 654.127 592.362 654.629 592.21 654.934C592.189 660.335 593.235 665.66 593.9 671.005C595.425 683.258 595.093 688.481 599.814 700.686L600.23 700.269C600.817 698.373 593.655 659.985 592.781 653.891Z" fill="#415A77"></path>
<path d="M346.885 603.35C345.187 610.858 349.211 618.499 349.168 625.957C349.147 629.795 347.988 633.786 347.459 637.595C346.874 641.813 345.536 655.78 346.534 659.313C349.557 652.409 349.221 646.336 349.394 639.023C349.499 634.625 350.265 630.245 350.304 625.855C350.367 618.715 348.649 610.297 346.885 603.35Z" fill="#415A77"></path>
<path d="M373.278 519.974L370.946 520.165L371.612 527.979L371.739 530.199C371.228 541.889 369.442 552.606 371.369 564.345C371.598 565.74 371.556 567.483 372.245 568.706C372.579 566.385 372.257 563.971 372.423 561.618C373.021 553.16 373.534 545.017 373.486 536.517C374.138 532.039 374.217 527.721 373.727 523.222L373.278 519.974Z" fill="#415A77"></path>
<path d="M222.011 914.507C204.663 915.152 189.235 922.187 172.616 926.047C186.917 925.966 208.909 920.743 222.011 914.507Z" fill="#415A77"></path>
<path d="M358.311 498.857C359.183 486.21 357.153 473.865 356.392 461.304C356.041 455.515 356.647 448.817 355.357 443.224C354.757 447.888 355.112 452.801 355.057 457.511C354.923 468.863 354.449 480.698 355.8 491.995C356.19 500.227 357.006 508.416 358.249 516.563C358.602 510.662 358.623 504.76 358.311 498.857Z" fill="#415A77"></path>
<path d="M538.349 445.334C537.531 435.959 535.544 422.462 532.325 413.732L531.219 413.515L532.18 413.355L531.19 413.688L531.212 413.055L531.961 412.862L531.47 412.157C528.732 418.215 535.522 438.999 536.823 446.564C537.16 455.445 538.209 463.038 540.92 471.509C540.882 462.606 539.38 454.137 538.349 445.334Z" fill="#415A77"></path>
<path d="M382.681 949.484C375.823 950.373 365.603 954.362 358.522 956.28C348.247 959.063 337.738 961.013 327.499 963.897C326.256 964.248 325.235 964.693 324.114 965.336C344.099 965.594 365.046 958.551 382.681 949.484Z" fill="#415A77"></path>
<path d="M542.804 471.828C542.145 473.827 542.387 476.844 542.606 478.927C543.144 484.046 544.877 489.073 545.665 494.178C547.534 506.279 547.563 518.87 551.297 530.629C552.345 522.673 548.988 491.309 547.103 483.026C546.179 478.966 545.003 475.397 542.804 471.828Z" fill="#415A77"></path>
<path d="M446.982 514.972C446.645 521.758 448.642 528.893 449.382 535.642C450.753 548.149 451.993 560.66 453.651 573.135C455.375 586.107 457.55 599.126 458.762 612.15C459.751 607.452 453.208 544.287 451.821 535.521C450.723 528.58 448.916 521.72 446.982 514.972Z" fill="#415A77"></path>
<path d="M364.882 414.28C362.321 420.175 369.987 469.859 371.256 479.535C371.869 484.209 371.971 489.065 372.934 493.673C373.886 490.909 374.419 488.314 374.378 485.374C374.271 477.482 372.212 469.72 371.284 461.897C369.45 446.447 369.96 429.102 364.882 414.28Z" fill="#415A77"></path>
<path d="M527.579 679.53C526.664 679.725 525.553 679.945 524.83 680.584C523.161 682.06 522.695 685.216 522.605 687.302C522.319 693.868 524.063 701.429 528.613 706.282C529.547 705.736 530.57 705.12 531.249 704.258C533.677 701.176 533.708 696.043 533.312 692.318C532.81 687.598 531.389 682.6 527.579 679.53Z" fill="#415A77"></path>
<path d="M436.96 684.254C436.681 684.297 436.399 684.329 436.122 684.384C434.507 684.702 433.511 685.139 432.644 686.64C429.887 691.412 430.269 700.412 431.878 705.591C432.715 708.283 433.642 709.521 436.107 710.875C436.246 710.809 436.384 710.741 436.524 710.676C437.277 710.327 438.07 709.995 438.749 709.512C440.608 708.189 441.672 705.247 442.058 703.101C443.23 696.585 440.761 689.469 436.96 684.254Z" fill="#415A77"></path>
<path d="M360.19 526.89C359.036 531.171 358.587 551.405 358.996 556.114C359.428 561.102 360.637 566.026 360.854 571.035C361.226 579.627 359.594 598.927 362.643 606.323C363.075 607.373 363.277 607.412 364.26 607.834C365.444 598.637 366.439 589.091 365.206 579.855C364.09 571.495 361.848 563.235 361.313 554.801C360.707 545.254 362.549 536.465 360.19 526.89Z" fill="#415A77"></path>
<path d="M433.964 321.193C433.923 317.964 432.935 314.95 432.457 311.773C431.563 305.832 431.203 299.523 429.59 293.733C428.017 288.085 425.05 283.091 424.74 277.145C424.703 276.42 424.744 276.715 424.467 275.962L422.863 275.735L423.492 275.565C423.554 276.224 423.626 275.891 423.12 276.517C423.673 279.721 424.829 282.744 425.55 285.911C427.227 293.275 428.323 300.77 430.031 308.118C431.045 312.481 432.67 316.701 433.597 321.065C433.517 325.544 433.259 330.152 433.549 334.62C433.862 339.421 434.992 344.228 435.598 349.005C436.712 357.775 437.568 366.605 438.637 375.391C439.338 381.146 439.166 387.027 440.069 392.732C441.271 400.33 443.327 407.618 444.279 415.3C444.945 406.729 442.729 399.34 442.057 390.932C440.995 377.645 440.738 364.238 438.605 351.038C437.686 345.351 435.355 339.861 434.602 334.168C434.034 329.867 435.067 325.447 433.964 321.193Z" fill="#415A77"></path>
<path d="M376.767 618.104C376.099 622.878 375.486 627.359 375.525 632.21C375.582 639.334 377.097 646.436 377.657 653.533C378.132 659.547 377.87 665.627 378.611 671.622C378.837 673.452 379.137 675.113 379.898 676.81L380.655 677.062L381.256 675.848C389.498 659.872 382.644 643.748 378.51 627.815C377.689 624.649 377.345 621.326 376.767 618.104Z" fill="#415A77"></path>
<path d="M420.234 646.277C418.89 647.565 417.815 648.926 417.117 650.674C414.212 657.945 413.665 673.252 417.044 680.502C418.079 682.723 419.352 683.319 421.524 684.159C421.781 683.997 422.039 683.838 422.289 683.666C425.045 681.764 426.142 678.624 426.68 675.422C428.276 665.918 425.648 654.203 420.234 646.277Z" fill="#415A77"></path>
<path d="M553.213 543.75C553.119 543.932 553.005 544.105 552.93 544.295C551.463 548.023 554.494 584.113 555.713 590.619C556.465 594.632 558.613 598.406 559.033 602.489C559.363 605.708 558.876 609.267 558.771 612.517C558.629 616.948 559.102 621.63 559.855 625.99C560.598 630.291 563.171 633.992 563.827 638.282C565.894 651.796 561.797 660.26 568.457 674.107C568.905 674.033 568.589 674.123 569.177 673.433C569.219 660.725 568.392 646.469 565.948 633.973C565.17 629.995 563.083 626.42 562.494 622.386C561.69 616.878 562.888 611.195 562.246 605.667C561.258 597.176 558.641 588.768 557.616 580.218C556.95 574.654 557.75 568.957 556.87 563.428C555.809 556.767 553.772 550.526 553.213 543.75Z" fill="#415A77"></path>
<path d="M435.587 605.263C435.511 605.27 435.436 605.277 435.36 605.283C434.563 605.343 433.501 605.339 432.756 605.623C431.621 606.056 430.823 607.042 430.267 608.086C426.705 614.762 427.657 628.52 429.683 635.747C430.647 639.187 431.735 641.838 434.92 643.616C436.069 643.586 437.196 643.624 438.158 642.89C441.108 640.642 441.699 636.093 441.916 632.65C442.463 623.995 441.606 612.042 435.587 605.263Z" fill="#415A77"></path>
<path d="M148.02 920.079C135.528 919.47 82.772 942.186 70.416 948.91C78.981 946.991 87.459 945.025 96.108 943.481C116.162 939.696 137.003 935.553 154.312 924.187C145.748 927.443 137.241 930.448 128.188 932.033C132.768 929.622 137.627 927.732 142.176 925.262C144.319 924.099 147.307 922.548 148.02 920.079Z" fill="#415A77"></path>
<path d="M635.717 773.955C627.149 775.506 618.333 779.353 609.905 781.736C597.504 785.243 584.814 787.659 572.173 790.116C551.422 794.149 530.149 795.687 509.26 798.942C500.329 800.334 491.538 802.481 482.738 804.52C498.579 805.054 515.44 802.034 531.145 799.989C557.076 796.614 615.824 790.229 635.717 773.955Z" fill="#415A77"></path>
<path d="M355.086 112.058L354.826 112.233C357.471 116.254 362.509 120.069 365.75 123.804C368.057 126.473 370.261 129.224 372.363 132.057C374.464 134.89 376.457 137.797 378.342 140.779C380.227 143.761 381.998 146.809 383.655 149.923C385.312 153.037 386.85 156.208 388.271 159.437C393.261 170.625 397.523 182.566 400.738 194.389C402.466 200.745 403.707 207.261 405.591 213.569C407.669 220.524 410.876 227.083 412.827 234.1C415.992 245.476 414.876 256.656 421.525 267.053L421.665 267.038C422.34 265.378 421.159 260.928 420.877 259.018C419.639 250.613 418.849 241.791 415.837 233.799C413.607 227.881 409.878 222.556 408.354 216.38C406.241 207.822 406.513 199.086 404.011 190.489C396.151 163.48 380.819 126.125 355.086 112.058Z" fill="#415A77"></path>
<path d="M542.319 369.351C541.475 373.784 543.702 381.138 544.478 385.696C545.381 391.001 545.718 396.435 546.797 401.697C549.824 416.451 553.576 431.186 555.996 446.063C557.543 455.576 558.235 465.213 559.801 474.723C562.669 492.144 566.429 509.575 568.59 527.091C569.43 533.897 570.256 540.882 570.824 547.708C571.132 551.407 570.878 555.199 571.375 558.872C572.057 563.905 575.19 568.423 575.842 573.537C578.486 594.275 577.813 615.549 581.82 636.102C581.897 635.938 581.991 635.779 582.052 635.608C583.357 631.977 582.703 625.752 582.64 621.854C582.368 605.014 580.961 587.702 577.891 571.131C575.511 558.284 572.073 546.559 570.38 533.376C569.113 523.515 570.327 513.517 568.764 503.754C567.96 498.737 565.539 494.086 564.547 489.126C563.899 485.89 564.143 482.446 563.603 479.172C561.784 468.13 558.899 457.227 556.86 446.225C554.055 431.089 551.724 415.898 549.221 400.718C547.425 389.825 546.216 379.796 542.319 369.351Z" fill="#415A77"></path>
<path d="M447.541 160.975C447.449 161.206 447.265 161.42 447.265 161.669C447.266 162.623 458.898 177.751 460.424 179.933C473.783 199.033 482.656 220.03 489.995 242.049C492.237 248.775 493.806 255.796 496.304 262.419C499.75 271.555 504.048 280.384 507.569 289.501C511.55 299.808 514.496 310.593 517.09 321.322C521.875 341.119 523.309 361.569 529.898 380.936L530.194 380.564C529.404 372.219 526.825 363.801 525.402 355.515C523.303 343.293 522.686 331.13 519.795 318.985C515.218 299.759 506.929 281.968 500.414 263.406C498.176 257.031 496.38 250.509 494.156 244.128C483.662 214.023 470.665 183.679 447.541 160.975Z" fill="#415A77"></path>
<path d="M898.069 762.706C871.529 760.115 847.429 769.009 822.592 776.838C831.542 776.615 840.39 775.056 849.247 773.859C856.797 772.824 864.374 772.057 871.978 771.556C899.143 770.725 926.313 770.201 953.489 769.984C947.256 768.397 940.76 767.687 934.398 766.794C922.339 764.987 910.229 763.625 898.069 762.706Z" fill="#415A77"></path>
<path d="M819.831 933.229C798.288 933.815 748.588 939.848 729.766 949.776C736.947 948.137 751.459 945.156 758.744 946.27L758.973 946.788C755.404 950.704 739.759 955.869 734.35 958.001C726.512 960.907 718.509 963.616 710.84 966.939C727.18 965.092 761.83 957.542 776.666 951.611C785.294 948.162 792.975 942.825 801.645 939.406C806.882 937.341 816.047 936.246 820.172 933.852L819.831 933.229Z" fill="#415A77"></path>
<path d="M874.244 779.713C859.549 778.867 846.033 782.329 832.525 787.764C845.042 790.812 863.041 788.486 876.509 789.279C894.197 790.321 911.839 793.289 929.375 795.765C941.698 797.373 957.028 798.808 969.033 795.547C958.838 794.908 948.805 794.041 938.771 792.022C925.718 789.396 913.008 785.265 899.958 782.65C891.411 780.938 882.927 780.165 874.244 779.713Z" fill="#415A77"></path>
<path d="M307.837 105.961C307.551 107.907 314.5 123.065 315.773 126.532C317.985 132.564 320.01 138.658 321.847 144.815C330.433 174.378 335.624 205.41 339.834 235.867C342.269 253.482 342.918 271.385 345.738 288.968C347.235 298.305 351.173 307.057 352.329 316.522C352.852 320.807 351.877 325.029 352.121 329.29C352.338 333.072 353.166 336.826 353.498 340.603C353.926 345.469 353.698 350.389 354.054 355.269C354.767 365.023 356.354 374.658 357.465 384.361C358.145 390.299 358.095 396.306 359.123 402.209C359.517 404.471 360.012 406.653 361.052 408.718C360.069 397.297 361.531 386.174 360.875 374.858C360.395 366.59 357.677 358.679 357.152 350.473C356.836 345.537 359.192 340.451 356.944 335.773C354.148 329.955 356.244 318.988 354.892 311.547C353.135 301.883 349.271 292.887 347.94 283.107C346.396 271.768 347.267 260.728 346.267 249.462C345.707 243.161 343.755 236.955 342.962 230.648C337.791 189.552 332.091 140.715 307.837 105.961Z" fill="#415A77"></path>
<path d="M804.657 786.222C776.142 785.217 747.556 797.814 721 806.691C696.883 814.752 672.971 823.139 648.311 829.449C627.597 834.75 606.653 838.782 585.634 842.632C579.637 843.73 565.661 844.826 561.182 846.722L562.212 846.728L562.098 846.739C584.996 845.372 607.768 843.518 630.376 839.393C652.627 835.333 675.011 828.853 696.384 821.519C713.347 815.998 730.053 809.683 746.95 803.952C759.849 799.578 772.678 795.235 786.204 793.225C803.685 790.628 822.242 793.08 837.928 801.415C847.04 806.258 855.73 811.986 865.219 816.1C885.312 824.812 908.522 829.533 930.435 829.474C912.946 824.697 894.767 820.623 877.84 814.121C869.644 810.973 861.418 807.296 853.679 803.147C844.619 798.289 835.795 792.299 825.887 789.283C818.95 787.17 811.861 786.551 804.657 786.222Z" fill="#415A77"></path>
<path d="M882.967 867.225C828.302 866.463 778.032 892.281 723.91 896.059C701.218 897.644 687.909 892.693 666.917 888.761C647.969 885.211 624.5 884.057 605.961 889.706C595.916 892.766 586.97 898.513 577.881 903.623C568.099 909.209 558.186 914.553 548.142 919.654C497.645 944.824 439.244 964.703 383.29 972.332C394.012 973.428 405.478 971.495 416.116 970.041C464.926 961.266 512.037 943.599 555.93 920.806C561.556 917.884 567.208 914.995 572.662 911.759C584.128 904.955 595.941 896.542 608.882 892.866C627.592 887.552 649.569 888.572 668.411 892.999C683.675 896.586 697.279 900.861 713.234 900.039C737.43 898.793 761.006 891.401 784.661 886.666C805.63 882.468 825.456 880.839 846.733 879.438C870.95 877.843 896.983 876.691 920.118 868.979C907.741 869.069 895.345 867.628 882.967 867.225Z" fill="#415A77"></path>
<path d="M649.812 774.555C648.943 774.467 648.829 774.446 647.997 774.831C649.514 777.838 657.452 783.068 660.511 785.477C655.289 783.299 646.811 778.579 641.257 779.226L640.769 779.925C642.159 784.407 649.94 789.308 653.663 792.159C643.572 793.14 634.657 791.938 624.708 790.324L624.473 790.749C625.281 791.591 625.836 792.085 626.263 793.203C626.121 793.276 625.988 793.368 625.838 793.423C622.102 794.773 611.137 791.066 607.407 789.495C608.437 791.898 609.43 793.952 611.037 796.052C604.392 796.031 598.559 795.637 592.074 794.12C593.061 795.858 593.869 797.362 594.363 799.307C593.005 801.324 587.299 800.582 584.96 800.708C578.584 801.051 556.425 806.965 550.08 809.679C558.708 809.162 567.078 809.805 575.671 809.726C581.666 809.671 587.635 808.81 593.636 808.672C585.794 810.926 577.427 811.904 569.444 813.641L500.22 828.228C480.765 832.29 461.216 836.002 441.797 840.218C424.733 843.922 407.869 848.345 390.518 850.562C374.118 852.657 357.45 853.512 340.934 854.081C329.155 854.486 317.165 854.477 305.469 856C292.611 857.674 280.816 862.053 268.271 864.837C259.957 866.682 250.79 867.347 242.73 869.98C255.64 869.746 269.073 867.991 281.738 865.532C292.458 863.45 302.998 860.799 313.88 859.648C330.523 857.988 347.567 859.354 364.244 859.619C375.865 859.834 387.446 859.26 398.989 857.897C422.254 855.21 445.342 849.366 468.354 844.997C481.655 842.471 494.976 839.853 508.342 837.703C527.912 834.555 547.67 831.94 567.097 827.99C590.749 823.182 613.801 815.799 637.473 811.184C645.734 809.573 697.168 801.966 699.037 800.793C681.942 801.013 665.091 803.983 647.964 803.452C672.545 791.85 693.837 797.692 719.094 796.551C734.327 795.863 749.184 793.003 763.864 788.963C748.395 786.665 732.608 786.328 716.997 786.428C706.667 786.495 695.949 787.254 685.711 785.75C673.19 783.911 661.98 777.719 649.812 774.555Z" fill="#415A77"></path>
<path d="M475.866 910.726C452.085 910.423 429.037 918.562 405.386 918.86C390.792 919.044 376.331 917.044 361.939 914.823C354.429 913.664 346.428 911.682 338.819 911.79L338.726 912.512L338.06 911.98L337.973 912.3C339.524 916.266 349.518 920.363 353.37 922.326C343.371 921.285 325.6 917.157 316.167 919.973C314.692 920.413 314.035 920.951 313.298 922.277C313.752 925.7 320.392 929.722 323.08 932.032C314.182 930.844 294.919 925.195 286.998 928.041C285.872 928.446 285.386 928.728 284.887 929.848C285.905 933.938 291.39 936.527 293.935 939.75C294.758 940.791 294.832 941.368 294.711 942.646C288.498 949.453 257.979 941.718 251.646 945.958L251.46 947.006C252.712 948.929 256.16 950.521 257.934 952.238C258.06 952.361 258.184 952.486 258.309 952.61C245.539 957.438 231.217 957.205 217.765 958.27C219.554 959.441 221.481 960.369 223.38 961.346C217.338 963.525 210.654 964.41 204.413 965.976C188.666 969.928 173.077 973.813 157.166 977.097L156.997 977.16C158.887 978.31 174.807 977.397 178.493 977.314C189.733 976.954 200.958 976.324 212.167 975.424C223.377 974.523 234.559 973.353 245.712 971.914C256.865 970.475 267.978 968.768 279.049 966.794C290.12 964.819 301.137 962.579 312.1 960.074C345.825 952.072 378.788 941.451 412.838 934.625C432.791 930.624 453.033 927.867 473.134 924.715C493.934 921.452 514.869 917.759 535.509 913.592C528.52 912.786 521.288 912.943 514.251 912.599C501.447 911.974 488.683 911.138 475.866 910.726Z" fill="#415A77"></path>
<path d="M638.702 899.682C636.456 899.397 633.855 899.275 631.61 899.655C629.655 899.986 627.97 900.531 626.849 902.209L627.117 903.306C629.915 906.445 635.272 908.016 639.136 909.619C630.217 912.174 620.532 912.565 611.374 911.253C607.799 910.741 604.077 909.755 600.499 909.473C599.095 909.363 598.498 909.69 597.475 910.573C597.285 911.334 597.047 911.685 597.338 912.46C599.107 917.162 607.769 920.356 612.051 922.023C601.174 925.024 588.85 926.502 577.578 925.722C573.426 925.434 568.459 923.834 564.36 924.527C563.208 924.721 563.112 924.815 562.507 925.733C565.713 928.556 570.441 930.532 574.198 932.631C564.392 934.608 554.015 933.921 544.512 937.223C547.832 940.656 552.143 942.767 556.291 945.021C545.519 948.034 534.249 950.341 523.007 949.052C519.469 948.646 515.965 947.718 512.434 947.177L512.066 947.52C512.161 947.669 512.242 947.829 512.353 947.968C515.315 951.682 523.45 952.522 527.917 953.474C523.813 954.747 519.778 955.616 515.503 956.088C510.773 956.61 502.48 955.523 498.428 957.569L498.868 958.133C503.181 959.83 507.428 960.343 512.003 960.828C492.536 965.354 472.291 965.59 452.7 969.265C463.837 972.204 478.436 972.102 490.051 972.076C533.274 971.983 575.677 961.314 616.534 948.04C643.845 939.167 670.594 929.476 699.233 925.592C680.388 934.56 660.335 940.64 640.764 947.762C622.569 954.383 605.537 961.784 586.754 967.003C591.136 966.745 595.486 966.672 599.875 966.683C631.07 967.259 662.186 960.109 692.225 952.441C702.985 949.694 713.824 947.048 724.486 943.939C739.328 939.611 753.926 934.306 769.041 930.961C793.826 925.476 818.593 925.717 843.624 922.798C833.314 921.392 822.506 920.633 812.095 920.551C805.15 920.495 798.145 921.097 791.216 920.638C846.418 909.653 904.101 917.067 959.166 924.912C904.092 906.494 833.349 902.742 775.534 906.788C751.926 908.44 728.217 913.075 704.513 912.298C690.057 911.824 675.974 908.369 662.027 904.798C654.327 902.826 646.611 900.614 638.702 899.682Z" fill="#415A77"></path>
<path d="M807.142 805.13C801.589 804.322 796.025 805.022 790.547 805.97C800.47 806.905 807.39 808.806 815.971 813.928C798.166 815.505 780.058 811.64 762.495 814.387C742.914 817.45 723.215 825.222 704.477 831.534C679.902 839.812 655.55 847.715 630.37 853.943C641.846 854.179 654.3 850.779 665.639 848.82C680.775 846.205 695.935 844.092 711.105 841.739C722.885 839.912 734.832 837.519 746.745 836.891C720.326 846.974 692.159 853.186 664.596 859.3C643.079 864.074 620.998 869.18 599.035 871.311C588.808 872.304 578.233 872.701 568.066 871.035C540.346 866.493 531.281 845.696 499.315 851.987C484.921 854.82 471.013 861.073 457.553 866.725C440.648 873.823 423.804 881.181 406.355 886.851C387.515 892.973 368.462 897.642 348.737 899.773C333.517 901.417 318.487 900.641 303.648 905.202C294.798 907.923 286.378 911.913 277.981 915.77C261.01 923.567 244.42 932.213 227.243 939.561C201.681 950.496 174.963 957.535 148.063 964.218C133.485 967.84 118.855 971.615 104.106 974.484C108.462 975.604 125.104 972.504 130.633 971.677C170.886 965.659 208.694 953.46 245.607 936.416C266.666 926.692 287.338 914.171 310.038 908.741C330.543 903.836 351.787 906.779 372.625 907.541C391.137 908.484 409.972 909.373 428.5 908.739C449.224 908.029 469.983 905.654 490.713 904.496C510.926 903.367 531.947 903.65 551.928 900.426C539.451 899.737 519.741 899.053 508.02 895.955C521.577 894.221 535.177 892.939 548.819 892.109C564.93 891.153 582.778 891.736 598.338 887.316C574.949 885.283 551.761 881.879 528.775 877.103C521.656 875.678 514.557 874.156 507.479 872.537C501.756 871.205 495.748 869.175 489.826 869.089C488.49 869.069 487.633 868.954 486.634 869.925C486.664 870.083 486.671 870.247 486.723 870.399C487.882 873.782 501.315 879.73 504.927 882.069C498.619 882.176 466.171 880.531 463.078 881.811C462.314 882.127 462.536 882.083 462.205 882.929C463.981 885.749 470.519 887.558 473.651 888.824C463.344 889.841 443.004 890.367 433.945 892.766L434.211 893.285L433.61 893.1C433.654 893.256 433.676 893.42 433.742 893.567C434.62 895.538 437.677 896.794 439.488 897.683C412.608 903.137 382.938 905.401 355.602 902.579C377.739 899.625 400.211 894.737 421.072 886.673C432.613 882.111 444.086 877.386 455.492 872.498C471.341 865.625 487.174 857.123 504.598 855.289C527.742 852.852 546.317 872.914 571.067 876.165C592.894 879.032 616.542 874.633 638.343 872.332C667.63 869.242 696.861 867.146 725.924 862.121C747.955 858.312 769.266 852.388 790.871 846.817C798.075 844.959 805.686 844.638 812.781 842.489C806.735 841.642 800.864 840.675 795.049 838.729C788.45 836.519 782.159 833.486 775.531 831.324C767.426 828.68 758.864 827.154 750.543 825.314C774.927 821.974 797.812 832.012 821.757 834.473C842.113 836.565 862.229 835.029 882.603 834.39C857.019 826.196 833.709 809.828 807.142 805.13Z" fill="#415A77"></path>
<path d="M846.08 359.918L845.77 360.489C844.666 360.308 844.145 360.048 843.25 359.379C843.075 357.904 843.768 357.298 844.522 356.05C845.246 356.437 844.81 356.264 845.87 356.458C846.988 354.505 846.599 351.363 846.306 349.211C846.019 347.107 845.575 344.477 843.67 343.223C843.434 343.068 843.188 342.927 842.947 342.779C841.632 338.791 842.391 334.331 841.628 330.208C841.405 329.005 841.251 328.531 840.185 327.861C840.102 327.98 840.006 328.091 839.936 328.217C838.791 330.285 837.639 339.648 838.271 342.075C838.544 343.127 838.66 343.963 838.762 345.04L838.31 345.054C837.576 344.298 836.959 343.735 836.044 343.209C832.552 346.298 837.317 352.779 836.569 356.544L835.875 356.882L833.866 355.876L834.477 357.021C835.224 358.39 835.768 359.194 835.778 360.828L835.276 361.252C833.752 360.676 833.154 359.225 832.353 357.9C832.604 356.183 833.12 354.308 832.349 352.687C831.355 351.842 831.331 351.762 830.041 351.693C829.246 352.493 828.891 352.831 828.913 354.066C828.941 355.657 830.415 356.951 831.399 358.054L831.943 358.674L832.274 359.041C832.619 360.205 833.075 360.888 832.651 362.055C832.161 363.404 831.797 364.052 832.382 365.386C832.64 365.478 832.898 365.568 833.155 365.664C833.828 365.916 834.338 366.141 834.937 366.514L834.724 367.306C833.594 367.692 832.911 368.208 831.793 367.499C830.991 366.991 830.195 365.992 829.525 365.304L828.904 365.329L828.732 365.977C828.561 366.602 828.369 367.186 828.139 367.79L825.591 368.293L825.312 368.986C826.571 370.609 827.938 371.816 829.515 373.127C829.278 375.33 828.668 377.57 830.186 379.414C830.76 380.112 831.375 380.772 831.992 381.432L832.236 382.539C827.757 383.154 823.314 384.216 818.78 384.145C820.047 385.452 821.417 387.073 822.966 388.036C824.875 389.222 831.334 390.931 831.425 393.214C830.211 393.211 827.502 392.237 826.663 392.739C828.408 394.729 830.143 396.57 831.311 398.972L831.212 399.908C827.411 400.88 827.039 396.533 823.611 400.019C822.467 400.141 822.225 400.134 821.168 399.695L820.614 397.846C817.301 396.969 813.588 396.291 810.157 396.441L809.576 396.786C810.374 398.174 812.485 398.235 813.824 399.276C812.027 400.5 807.934 399.463 805.759 399.154C808.85 402.406 809.685 404.18 811.759 407.995C814.813 413.611 823.356 412.968 828.967 413.488C818.66 420.015 811.627 417.346 800.457 417.606C802.293 418.901 804.112 420.259 806.191 421.141C807.192 421.566 809.948 422.206 810.651 422.828C810.716 422.886 811.004 424.051 811.02 424.129C811.144 424.734 811.159 425.44 811.209 426.049C813.412 427.737 815.279 425.519 817.136 428.792C816.748 429.56 816.91 429.655 816.025 429.942C813.149 430.877 808.842 429.164 806.369 430.853C807.199 432.992 809.876 434.251 811.893 435.141C815.312 436.65 827.567 438.93 827.835 439.336C826.397 440.4 822.429 441.517 821.79 442.766L822.84 443.522C823.019 444.808 823.124 444.765 822.36 445.795C819.111 446.841 816.757 445.376 813.746 445.609C812.294 445.721 809.192 447.522 807.54 447.991C807.472 447.223 807.645 446.653 807.016 446.116C805.012 444.406 801.355 444.104 798.859 444.517C798.11 444.641 797.577 444.893 796.952 445.312C797.467 446.449 799.565 446.922 800.779 447.38C801.992 447.826 803.209 448.258 804.432 448.676C803.252 450.796 800.292 451.75 798.134 452.687L798.438 453.572C801.29 454.786 806.435 454.055 808.436 455.704C808.75 457.018 808.434 457.637 807.976 458.855C809.142 459.922 809.854 459.861 811.416 459.851C814.735 459.831 817.273 459.469 820.59 460.195C821.249 460.339 821.911 460.464 822.57 460.61C817.42 462.948 812.164 462.69 807.069 464.753C804.205 464.073 801.43 463.324 798.638 462.387C796.973 461.9 795.263 461.467 793.604 462.276C792.959 462.59 792.943 462.647 792.466 463.055C792.358 463.858 792.115 464.058 792.664 464.728C793.22 465.406 793.782 465.763 794.512 466.224C796.967 467.678 799.463 469.067 801.73 470.808C798.622 470.437 795.51 470.106 792.393 469.815C794.693 471.687 796.905 473.437 799.486 474.915C801.471 474.253 803.596 473.689 805.478 472.777C808.262 473.666 811.162 474.379 813.613 476.01L813.686 476.645C812.48 476.718 811.383 476.726 810.179 476.632C806.091 476.311 801.921 476.569 797.396 476.212L797.073 476.797C799.36 479.89 810.739 487.96 814.239 488.956C817.178 488.607 819.052 485.511 821.907 487.28C821.674 488.737 820.214 489.86 819.085 490.704C817.593 491.82 816.32 492.143 814.488 491.767C812.79 491.417 811.163 490.461 809.497 489.934C807.228 489.216 796.411 486.633 794.72 486.933C793.955 487.603 793.571 487.918 793.713 489.069C794.075 492.019 801.373 494.876 803.103 498.27C800.392 499.655 793.163 498.914 790.218 497.972C789.812 497.841 789.407 497.705 789.004 497.564C788.966 496.691 788.885 497.029 789.235 496.218C789.752 495.021 790.33 494.121 790.289 492.774C789.191 493.044 788.066 493.357 786.947 493.513C785.742 493.682 784.93 493.767 783.943 493.001C784.584 490.229 788.418 488.347 789.682 485.666C790.119 484.74 790.055 485.157 789.696 484.141C783.902 482.322 776.189 491.014 770.266 488.96C770.004 485.832 775.745 485.896 777.482 483.539C777.959 479.59 778.873 479.383 781.739 477.001C781.971 475.214 780.61 475.778 779.803 474.208C780.171 473.334 780.478 472.602 780.581 471.656C778.497 471.164 774.665 473.491 772.627 474.353C771.139 474.983 769.799 475.496 768.248 474.858C770.115 471.684 776.092 470.268 777.338 466.744L776.12 465.213C777.354 464.432 778.591 463.807 779.36 462.519C779.142 461.058 779.024 461.063 777.929 460.042C776.553 459.699 776.37 459.57 775.066 460.067C774.744 460.788 774.435 461.595 773.835 462.139C772.747 463.127 770.938 463.319 769.54 463.333C767.733 463.351 765.76 463.197 764.399 461.903C764.902 460.627 768.813 459.183 770.219 458.344C770.116 457.312 767.728 457.288 766.891 456.143C768.813 453.873 771.069 454.312 772.713 451.32C772.674 449.811 772.307 448.607 771.85 447.191C770.583 447.156 769.18 448.581 768.188 449.366C765.081 448.916 763.031 449.176 760.031 450.012C762.14 448.292 765.315 446.223 766.726 443.928C767.267 443.048 765.826 443.182 765.475 442.107L766.62 440.3C767.465 438.93 768.363 437.266 768.537 435.636C768.674 434.366 768.691 434.151 767.849 433.241L766.46 433.235C764.833 434.56 765.104 436.494 764.162 438.167C763.379 439.556 761.516 439.705 760.117 440.116L759.352 438.73C760.066 437.668 760.576 437.412 761.627 436.708L760.637 435.284C761.918 431.928 763.394 431.065 762.8 427.178L761.92 426.741L760.235 427.647C759.045 424.569 758.687 415.676 757.611 411.328L757.477 412.083C756.964 415.036 757.261 424.512 755.487 426.105C754.223 427.24 752.34 428.771 752.168 430.618C751.926 433.216 754.635 435.73 753.227 438.291C751.698 436.45 751.331 433.909 749.489 432.333L748.742 432.558C748.142 434.11 748.485 435.192 749.142 436.687C750.372 439.485 753.258 442.628 753.811 445.549L753.478 445.974C752.735 444.938 752.24 444.01 751.731 442.854C750.697 442.134 749.739 441.674 748.43 441.739C747.21 441.8 746.875 442.101 746.163 442.954C746.64 446.848 752.194 447.775 750.213 450.986C748.812 451.731 747.688 451.54 746.236 451.089C744.696 450.611 742.993 449.698 741.386 449.843C740.977 450.849 741.182 451.198 741.562 452.185C742.484 454.577 749.454 458.851 749.077 460.363C747.937 460.709 746.868 460.997 745.688 461.191L746.262 461.33C747.454 461.627 748.486 461.752 749.357 462.686L748.753 463.225C747.899 463.084 747.323 462.967 746.522 462.614C744.235 462.016 739.138 459.464 736.978 460.28C736.698 461.702 737.698 463.284 738.267 464.629C739.603 465.497 740.289 465.205 741.857 465.045L742.294 466.825C741.631 467.9 741.503 467.833 740.289 468.25C742.074 471.239 746.979 470.325 747.827 473.851C746.9 476.258 744.363 477.858 742.376 479.394C739.493 478.057 732.638 474.853 729.633 475.984C729.472 476.045 729.332 476.151 729.182 476.234C728.925 477.359 728.909 477.533 729.267 478.625C731.272 479.911 735.451 479.56 736.205 481.816C735.363 483.028 733.981 484.028 734.088 485.484C735.152 486.428 735.389 486.716 736.909 486.659C738.961 486.584 741.459 485.208 743.435 484.599C741.979 485.624 738.3 487.561 737.81 489.137C739.669 489.696 744.085 489.386 745.074 491.001C744.792 492.111 744.501 492.834 743.487 493.49C742.089 494.393 740.34 495.072 738.826 495.757C735.862 495.042 727.117 492.062 724.587 493.477C724.319 494.621 724.434 494.679 724.934 495.761C726.161 496.566 729.84 498.198 730.139 499.538C730.208 499.845 730.228 500.16 730.272 500.471C731.654 500.648 732.908 499.691 733.794 500.579C733.523 502.075 733.615 502.153 732.461 503.11C729.462 503.459 726.038 502.336 722.908 502.301L723.532 502.77C726.976 505.333 731.786 506.501 733.808 510.338C736.043 511.641 740.212 508.844 741.393 511.453C739.682 513.578 733.464 514.725 732.602 516.482C733.651 516.965 734.396 516.903 735.502 516.974C736.28 517.025 736.035 517.028 736.892 517.488C735.34 518.852 732.792 519.46 730.858 520.168C727.121 518.947 723.029 518.554 719.111 518.599L718.269 519.042C719.217 520.696 721.68 521.383 723.417 522.027C721.139 522.231 718.875 522.411 716.589 522.496C719.701 524.2 722.335 525.666 725.933 526.03L726.911 527.029C726.631 528.131 726.341 528.591 725.233 529.162C722.157 530.747 719.546 527.594 716.794 528.299C716.45 529.931 717.814 532.352 718.387 533.927C720.876 535.705 722.982 537.178 725.933 538.092L726.8 538.366C726.375 539.312 725.913 539.604 725.132 540.256C727.144 540.363 728.154 538.517 730.236 538.547C730.438 539.704 729.913 540.445 729.181 541.368C728.801 541.848 728.271 542.248 727.805 542.635C723.479 542.483 713.414 543.381 710 541.042C710.211 538.188 715.151 535.858 715.344 531.449C715.395 530.292 715.567 530.703 714.902 530C714.195 530.635 713.48 531.246 712.74 531.842C706.682 532.833 704.151 528.951 699.129 527.216C698.864 527.124 698.597 527.04 698.331 526.952C699.814 526.822 701.115 527.159 702.58 527.29C705.263 527.53 708.106 525.611 710.058 523.927C711.483 522.699 713.198 520.995 713.371 519.035L712.872 518.473C710.184 519.602 707.369 520.348 704.44 520.404C701.376 520.464 698.376 519.832 696.158 517.611C696.673 516.888 697.184 516.16 697.689 515.429C698.217 514.655 699.402 513.4 699.226 512.484C697.76 512.81 696.368 513.242 694.944 513.717C697.013 512.154 699.927 510.643 701.369 508.5C700.719 507.251 700.135 506.815 699.024 506.016C697.374 506.555 696.874 507.366 695.706 508.622C694.263 508.887 694.093 508.564 692.791 507.836C692.859 505.447 695.085 503.988 695.562 501.849C695.768 500.926 694.773 499.909 694.285 499.164C694.643 497.611 694.732 496.09 694.018 494.632L692.935 495.573L692.345 495.186C690.535 488.983 690.494 482.303 689.839 475.907C688.129 480.604 688.793 485.905 687.603 490.737L685.539 491.239L684.989 492.207C685.197 494.204 685.835 494.675 687.041 496.22L685.906 499.18C685.648 499.188 684.286 496.156 683.236 495.521L682.3 495.859C682.144 496.298 682.04 496.5 682.039 497.019C682.033 499.508 682.862 502.862 684.432 504.796C685.058 505.568 685.551 506.277 686.063 507.133L685.783 508.141C683.462 507.202 681.449 506.008 678.922 505.728L678.134 506.74L678.221 506.205C678.237 506.443 678.238 506.683 678.269 506.92C678.506 508.715 679.403 509.268 680.807 510.225C681.093 510.421 681.984 511.009 682.274 511.242C683.702 512.389 683.589 513.905 683.858 515.594C682.106 513.951 679.735 510.954 677.263 511.007L676.183 512.031C676.243 513.174 676.26 513.234 677.185 514.007C678.722 515.294 680.917 515.913 681.859 517.768C681.388 518.879 681.152 518.967 680.008 519.506C679.659 519.671 679.275 519.794 678.909 519.919L678.26 519.295L677.508 520.332C674.973 520.165 672.046 516.138 669.846 517.925L669.941 518.855C670.978 519.588 671.954 520.196 673.093 520.77L673.213 521.372C672.95 521.469 672.685 521.561 672.424 521.664C671.616 521.984 671.17 522.238 670.52 522.779L670.201 523.807C672.175 526.354 677.602 524.958 678.103 528.216C676.848 529.887 674.597 530.136 673.395 531.85C674.425 532.588 675.303 532.514 676.522 532.302C677.757 532.086 679.084 531.501 680.264 531.073C677.597 532.596 674.939 534.007 672.148 535.291C669.696 534.671 667.276 534.031 664.761 533.712C664.253 534.712 664.494 534.977 664.836 535.998C666.978 542.388 674.937 542.253 673.22 546.386C671.614 546.879 670.16 546.61 668.529 546.419C667.601 547.649 667.827 548.763 668.014 550.26C665.634 551.524 662.635 549.627 660.46 550.986C660.472 552.644 661.613 553.874 660.683 555.245C651.578 556.495 642.456 552.906 633.285 553.746C628.208 554.212 624.286 556.956 619.449 558.014C607.969 560.525 611.265 555.934 602.527 566.372C602.718 570.534 603.949 574.986 604.674 579.105C605.914 586.14 607.01 593.195 608.327 600.216C617.136 596.527 626.741 594.517 635.88 591.789C639.232 590.76 642.552 589.637 645.84 588.419C649.127 587.201 652.378 585.89 655.591 584.486C658.804 583.083 661.974 581.589 665.102 580.004C668.23 578.42 671.31 576.748 674.342 574.987C682.765 569.991 690.837 564.117 698.701 558.298C704.037 554.351 709.365 549.687 715.399 546.872C719.129 545.132 722.789 544.371 726.853 543.916C733.454 543.925 741.312 544.697 747.618 542.342C755.51 539.394 764.849 525.064 770.997 518.878C776.703 513.138 783.012 507.926 789.99 503.82L794.413 503.056C798.64 502.507 802.859 501.904 807.07 501.249C827.667 497.855 848.796 495.415 868.891 489.542C873.615 488.435 878.332 487.297 883.042 486.13C888.724 485.659 894.877 483.61 900.441 482.253C916.766 478.27 933.552 474.415 949.23 468.317C950.136 467.318 950.974 466.58 951.16 465.179L950.488 464.489C945.224 463.405 936.853 466.727 931.509 467.923C935.001 465.042 958.44 451.653 959.059 450.266C957.476 448.503 951.17 452.56 948.132 451.909C947.01 450.908 947.033 450.818 946.734 449.332C945.594 448.486 940.337 451.327 938.647 451.716C936.943 452.108 935.078 452.039 933.341 451.997L933.172 451.514C936.988 447.932 950.917 443.271 952.39 440.724L951.771 439.886C950.812 439.662 949.884 439.457 948.967 439.092C949.69 438.775 950.355 438.614 951.119 438.429C952.831 438.669 955.527 438.68 957.151 438.019C958.299 437.552 958.972 437.063 959.511 435.964L958.728 435.281C956.342 434.919 954.255 435.8 952.004 436.505C951.645 436.243 951.485 436.102 951.05 435.91C947.728 434.439 936.456 437.99 932.886 439.055C935.277 436.823 937.842 434.793 940.693 433.178C944.845 430.825 952.003 428.689 955.059 425.101C955.636 424.424 955.451 424.343 955.402 423.516C951.362 420.865 942.063 425.733 937.188 422.955L937.373 422.377C937.929 422.283 938.482 422.17 939.031 422.037C941.839 421.337 943.718 420.047 945.178 417.562L944.786 416.867L942.846 416.695L942.738 416.76C943.254 415.911 944.632 415.486 945.52 415.044C945.957 413.951 946.104 414.089 945.735 412.879C943.526 412.4 935.829 415.713 932 415.521C930.945 415.469 930.854 415.472 930.117 414.677C930.327 413.401 931.13 412.638 931.931 411.677L932.331 411.201L932.172 410.52C929.433 411.002 926.69 411.453 923.941 411.873C926.123 410.842 928.618 410.305 930.621 408.949C929.299 407.215 925.824 407.174 925.024 405.521C926.941 404.135 929.777 404.022 932.071 403.646L931.782 404.213L932.305 403.58L932.885 403.662C934.629 402.3 937.162 400.677 938.38 398.844C938.932 398.012 939.04 397.856 938.812 396.871C936.576 396.226 933.308 397.452 930.999 397.882L931.264 397.263C932.578 396.498 933.733 395.872 934.558 394.55C934.629 394.436 935.023 393.728 935.142 393.619C936.179 392.673 937.74 393.322 939.061 393.446C939.578 392.197 939.61 391.633 939.367 390.307C936.909 387.987 934.148 392.004 931.362 391.491L931.398 389.497L930.565 389.029C928.751 389.136 927.476 389.472 925.883 390.396C924.942 390.942 924.803 391.121 923.684 391.175C924.274 389.435 924.873 387.284 924.182 385.508C923.213 385.243 922.859 385.181 922.095 384.489C922.535 383.231 923.673 382.548 924.677 381.685C926.05 380.504 926.839 379.936 927.366 378.156C926.714 377.042 926.862 377.618 926.831 376.454C927.635 375.879 928.65 375.279 929.336 374.576C930.53 373.35 929.947 370.221 929.917 368.567C928.8 369.145 927.792 369.737 926.753 370.455C926.623 370.956 926.47 371.79 926.188 372.253C925.599 373.221 925.205 373.469 924.171 373.85C923.896 373.177 923.705 372.842 923.248 372.244C921.489 373.139 921.851 374.445 919.006 375.689L918.618 375.506C919.993 373.651 921.315 371.43 921.636 369.105C921.786 368.017 921.87 368.464 921.233 367.572C920.232 367.921 919.235 368.23 918.213 368.514L917.903 367.869C918.697 366.449 919.793 365.757 921.084 364.842C920.721 362.767 920.5 358.701 918.961 357.391C917.42 358.04 916.824 359.694 916.055 361.088C916.201 354.213 916.226 348.513 913.896 341.947C913.305 346.402 913.687 351.482 912.49 355.752C912.069 356.184 911.246 356.849 910.997 357.374C910.305 358.838 912.118 364.611 912.516 366.429L912.097 366.892C910.769 366.307 909.799 365.587 908.683 364.687C908.515 364.131 908.359 363.57 908.153 363.026C907.672 361.754 907.631 361.577 906.469 361.005C905.156 361.251 905.107 361.325 904.181 362.299C904.388 363.015 904.613 363.628 904.933 364.307C905.039 364.531 905.151 364.751 905.26 364.973C904.648 366.169 904.228 367.149 903.912 368.47C904.521 370.875 905.629 371.396 907.611 372.702C907.35 373.512 907.24 374.246 907.154 375.092C908.746 377.297 909.831 379.744 911.002 382.188C909.843 381.187 908.145 379.298 906.579 379.177C905.839 379.119 905.109 379.159 904.409 378.866C902.727 378.163 900.448 375.963 899.689 374.364C901.987 374.354 904.704 376.478 906.691 377.675C906.266 377.187 905.854 376.688 905.436 376.195C904.06 374.575 902.857 372.644 900.618 372.461C899.724 373.015 899.399 373.447 898.953 374.363C898.201 375.909 897.321 377.349 896.428 378.816C899.361 381.142 901.718 385.05 903.57 388.297C903.587 388.631 903.552 388.972 903.621 389.3C903.864 390.455 905.167 390.857 906.104 391.413L906.063 391.828C903.127 391.989 900.983 389.502 897.962 389.685L897.472 390.358L899.551 392.555C899.039 393.35 895.833 391.756 894.379 392.243C893.976 394.587 897.092 395.658 896.732 398.144L895.63 398.627C893.403 397.758 891.468 397.313 889.09 397.075C888.475 396.236 888.281 395.446 888.01 394.452C886.923 393.859 885.657 393.646 884.399 393.933C883.839 394.061 883.71 394.191 883.288 394.473C883.119 395.641 883.418 396.397 884.247 397.259C885.318 398.373 886.703 398.585 888.144 398.864C888.692 399.779 889.098 400.491 889.32 401.54C890.729 402.623 892.241 402.948 893.718 403.813L893.716 404.271C892.798 404.397 892.26 404.432 891.445 404.902C895.955 411.21 900.177 409.436 902.743 411.89C903.301 412.424 903.074 412.436 902.989 413.306C900.128 414.852 896.835 411.438 893.354 412.471C892.267 412.793 892.646 412.519 892.123 413.538C893.922 416.146 897.424 416.806 899.368 419.175C899.967 419.903 899.809 419.528 899.729 420.542C896.22 419.575 892.293 416.257 888.908 414.548C885.151 412.65 881.148 411.145 877.264 409.525C874.223 409.967 871.182 410.499 868.254 411.457C862.88 413.216 857.316 416.655 851.539 416.385L851.046 415.799C852.759 413.057 855.162 410.72 857.347 408.344C860.19 408.26 862.652 408.267 865.082 406.557C866.042 405.882 865.803 406.277 865.986 405.284C865.862 405.156 865.749 405.015 865.613 404.899C863.725 403.287 860.045 403.913 857.716 403.991C861.789 402.432 866.922 399.327 869.946 396.122C870.921 395.089 872.292 393.649 872.285 392.157C869.299 390.879 865.85 393.857 862.845 394.317C860.865 394.619 855.17 393.391 851.671 393.64C855.378 390.821 860.672 387.503 863.065 383.461C863.667 382.445 863.514 382.631 863.287 381.615C860.739 380.828 855.335 384.205 852.374 384.811C852.144 384.858 851.913 384.899 851.683 384.943C852.696 383.398 854.44 382.115 855.036 380.403C853.77 380.174 852.861 380.227 851.876 379.355C852.369 377.486 854.713 376.006 856.162 374.876C856.298 373.976 856.428 373.075 856.551 372.173C856.737 370.883 856.841 370.132 856.282 368.889C853.356 367.891 848.883 373.964 845.046 374.116L845.181 373.365L850.105 371.004L850.241 370.37C848.77 369.346 846.559 369.427 844.812 369.265L845.978 367.022C846.957 365.149 847.477 364.062 847.504 361.918C848.541 360.529 849.616 361.276 850.452 360.257C851.532 358.941 852.518 356.397 852.309 354.697L851.611 354.269C850.125 354.516 849.021 355.156 847.934 356.189C846.518 357.536 846.084 357.985 846.08 359.918Z" fill="#F77F00"></path>
<path d="M542.239 200.9C542.965 192.7 537.371 179.567 532.049 173.222C523.334 162.834 510.623 162.412 498.792 158.182C493.489 156.287 488.407 153.809 483.087 151.942C474.368 148.882 465.359 146.458 456.842 142.854C448.135 139.168 441.138 131.036 432.76 126.366C424.619 121.829 416.387 117.288 407.87 113.487C383.724 102.71 346.476 91.5415 320.007 89.4356C310.47 88.6769 285.774 88.3849 278.461 84.4069C270.791 80.235 265.482 74.4307 256.732 71.8192C248.622 69.3986 239.693 70.6838 231.978 67.841C222.732 64.4345 216.574 58.3993 206.226 56.1064C191.528 52.8499 176.878 56.6164 162.141 57.2089C148.345 57.7636 134.601 55.41 120.805 55.6404C101.482 55.9631 83.286 61.6691 64.684 66.1966C60.315 67.2599 49.615 68.6208 46.189 71.0718C46.024 71.19 45.885 71.342 45.734 71.4771L45.816 72.1804C50.106 74.494 55.321 75.3565 59.913 77.0252C67.669 79.8438 75.212 83.3133 82.988 86.1466C94.181 90.225 107.008 93.3554 117.138 99.7152C106.651 101.444 95.98 99.259 85.391 99.7613C91.525 102.223 97.792 103.925 104.206 105.45C117.68 108.655 131.341 110.621 137.581 124.924C138.704 127.498 139.564 130.214 140.469 132.871C145.723 133.169 150.616 133.659 155.653 135.267C169.598 139.719 196.935 155.369 206.858 166.341C219.673 180.511 210.278 188.171 216.268 197.055C221.064 204.17 241.16 217.834 248.902 225.055C259.367 234.814 264.696 247.814 272.177 259.654C276.981 267.258 282.846 274.406 286.782 282.517C290.83 290.858 294.114 300.489 295.6 309.618C288.012 305.789 281.225 300.548 274.316 295.64C269.401 292.148 264.025 289.149 259.258 285.493C249.511 278.018 241.822 266.388 236.268 255.59C254.292 275.784 262.719 283.674 287.058 297.323C281.887 290.782 277.186 283.911 272.105 277.307C265.895 269.236 259.111 261.608 252.407 253.949C246.618 247.335 240.941 240.575 234.576 234.501C229.524 229.68 224.062 225.021 218.444 220.879C213.511 217.242 206.944 213.89 202.947 209.251C200.138 205.991 198.301 200.743 196.257 196.919C190.807 186.719 183.243 176.742 174.182 169.484C160.36 158.413 152.305 160.274 138.598 153.816C135.564 152.386 133.684 149.361 130.79 147.835C125.876 145.243 119.957 144.46 114.9 142.059C108.603 139.071 102.704 135.152 96.631 131.741C95.329 131.024 94.0103 130.338 92.675 129.685C91.3397 129.032 89.989 128.413 88.623 127.826C87.2577 127.24 85.8783 126.687 84.485 126.168C83.0923 125.649 81.6877 125.165 80.271 124.715C78.8543 124.265 77.4273 123.85 75.99 123.471C74.5533 123.091 73.108 122.746 71.654 122.437C70.2 122.128 68.7393 121.855 67.272 121.618C65.8046 121.381 64.3323 121.18 62.855 121.015C62.2323 120.943 61.6094 120.876 60.986 120.814C73.141 126.399 85.28 131.887 95.947 140.115C106.407 148.184 110.779 160.37 119.89 169.4C139.077 188.419 164.274 193.065 176.804 220.143C165.763 212.061 154.106 204.289 140.525 201.315C158.639 213.441 169.344 223.858 176.135 244.856C167.288 237.619 157.329 229.79 147.087 224.682C142.23 222.26 136.938 220.841 132.06 218.503C128.743 216.913 125.836 214.484 122.475 212.964C119.536 211.636 116.34 210.814 113.526 209.226C108.047 206.134 104.137 200.864 98.914 197.362C90.176 191.505 56.065 176.338 46.222 175.89L45.616 176.429C45.829 177.08 46.075 177.553 46.563 178.044C49.773 181.27 54.403 183.541 58.015 186.372C64.258 191.266 69.893 197.169 76.485 201.573C82.458 205.564 89.406 208.888 94.643 213.809C98.678 217.601 99.862 222.741 103.379 226.589C108.941 232.674 117.23 235.842 122.273 242.519C126.908 248.658 128.941 256.179 134.374 261.841C146.058 274.018 163.563 277.671 171.567 294.221C174.423 300.126 174.346 306.847 176.95 312.642C181.478 322.719 186.555 325.527 186.627 337.878C200.781 350.831 209.144 359.233 214.84 378.046C209.537 370.386 203.733 363.639 196.831 357.365C192.121 353.084 186.951 349.104 182.789 344.273C178.165 338.906 176.756 331.648 172.46 326.238C169.539 322.56 159.548 310.376 156.539 308.006C153.541 305.645 149.453 304.708 146.807 301.93C143.693 298.661 142.919 293.945 139.42 290.896C132.956 285.264 122.959 284.839 117.573 279.656C112.775 275.04 114.685 268.709 108.328 264.025C100.802 258.479 92.561 254.2 84.153 250.167C78.784 247.592 72.273 245.469 67.699 241.671C62.097 237.021 56.173 234.562 48.692 235.326C47.969 235.4 47.33 235.604 46.642 235.826L46.221 236.407C50.445 241.185 56.505 243.801 60.638 249.006C65.02 254.524 67.31 263.454 71.189 266.939C77.01 272.167 84.795 274.685 90.611 280.187C93.002 282.449 94.842 285.051 96.356 287.957C99.68 294.339 100.907 302.179 106.494 307.104C115.854 315.355 128.801 316.077 138.997 322.905C149.417 329.884 152.42 341.52 160.765 349.933C168.873 358.107 180.505 361.832 188.286 370.667C192.866 375.867 194.363 381.818 196.938 388.024C199.208 393.494 202.294 399.124 206.007 403.754C209.83 404.576 213.955 405.237 217.56 406.766C228.96 411.601 239.044 423.244 245.655 433.398C258.957 453.829 263.32 476.203 274.998 495.962C269.713 492.274 264.688 488.287 259.47 484.52C253.958 480.54 247.65 477.122 243.305 471.779C239.614 467.24 238.466 460.96 236.736 455.508C233.276 444.607 228.103 433.253 219.82 425.12C214.345 419.745 205.737 420.599 199.544 416.22C187.546 407.738 182.267 395.606 171.935 387.175C162.18 379.216 148.502 376.065 140.669 365.768C139.786 358.097 138.728 349.818 132.158 344.708C124.454 338.714 113.626 339.68 105.403 334.689C106.37 332.429 107.378 330.176 108.304 327.899C96.656 317.15 81.568 311.799 66.537 307.946C75.14 314.728 84.864 321.304 90.703 330.804C75.353 325.044 61.467 322.186 44.97 323.049L45.321 373.781C65.881 380.945 82.024 389.612 94.968 407.893C100.077 415.109 104.12 424.793 112.383 429.058C122.432 434.244 136.732 426.965 142.569 439.488C143.093 440.612 143.49 441.832 143.896 443.001C152.999 444.013 162.453 444.771 168.713 452.462C170.421 454.559 171.491 457.047 172.569 459.503C191.791 466.939 197.797 468.131 206.617 488.071C228.741 494.51 239.548 502.147 250.866 522.839C261.799 542.827 275.581 583.501 275.999 606.27C269.911 583.058 260.981 550.919 247.146 531.193C241.212 522.733 232.486 514.652 223.569 509.421C212.736 503.066 201.453 499.062 189.562 495.248C183.172 493.198 176.367 491.399 170.382 488.341C161.07 483.584 158.589 473.362 150.68 467.24C141.433 460.084 126.634 457.637 115.849 453.31C106.3 449.479 97.246 444.544 87.401 441.428C80.729 439.316 73.071 437.578 66.078 437.074C74.6533 442.303 83.2827 447.442 91.966 452.49C99.729 456.92 108.105 460.896 115.096 466.508C121.805 471.892 128.231 479.296 133.55 486.055C124.235 480.629 115.018 474.701 105.198 470.23C93.253 464.79 80.142 461.877 67.504 458.464C60.175 456.484 52.693 453.994 45.131 453.121C45.198 461.328 44.722 546.18 46.11 547.665C47.841 546.985 48.497 546.905 50.196 547.671C50.806 547.946 51.404 548.252 52.001 548.554C53.444 548.186 53.512 548.027 54.823 548.675C57.023 551.585 57.431 555.727 57.635 559.291C61.131 557.662 66.404 554.727 70.255 556.077C70.918 556.924 71.044 556.861 71.128 557.994C71.215 559.177 71.157 558.702 71.347 559.767C71.475 559.588 71.6 559.408 71.729 559.23C74.374 555.606 78.975 550.731 83.539 549.922C84.898 549.681 85.473 549.951 86.603 550.659C87.594 552.625 87.085 553.903 86.44 555.873L86.27 556.381C88.752 555.047 92.096 552.79 94.98 553.167C96.123 553.84 104.954 559.244 105.312 559.646C105.879 562.066 103.924 564.122 104.78 566.331C106.98 566.215 108.856 565.644 110.685 566.949C111.208 568.176 111.22 568.441 110.814 569.786C110.637 570.374 110.252 571.028 109.981 571.567L110.459 571.437C113.231 570.704 118.217 569.43 120.755 571.413C121.668 572.126 121.938 573.054 121.844 574.178C121.776 574.984 121.308 575.989 121.03 576.757C121.526 578.949 124.012 580.421 122.634 582.799C121.451 584.841 119.146 585.675 118.492 588.035C120.419 589.756 123.716 586.544 124.144 591.371C124.296 593.082 123.426 595.087 122.205 596.261C121.19 597.236 119.98 597.21 118.671 597.297C117.583 598.336 117.372 598.878 117.003 600.277C117.512 601.544 117.582 601.715 118.68 602.51C124.654 601.919 125.315 591.255 132.528 596.507C134.787 595.189 135.524 591.652 138.456 591.762C138.859 592.483 139.049 592.95 139.286 593.769C142.813 591.147 140.143 587.584 147.245 588.695C148.36 588.869 148.975 589.396 149.743 590.168C150.635 591.958 150.49 593.72 150.491 595.674C151.08 595.903 151.365 596.201 151.99 595.926C152.92 595.518 153.446 594.762 154.1 594.014C155.354 593.806 156.213 594.358 157.303 594.888L157.875 595.663C157.271 596.409 156.219 597.263 156.277 598.225C158.423 597.876 162.22 596.485 164.073 597.962C165.129 598.804 165.85 600.075 165.823 601.448C165.778 603.75 162.555 604.739 164.556 607.162C164.694 607.329 165.556 608.051 165.694 608.172C166.814 609.146 167.544 609.864 167.67 611.433C167.77 612.675 167.543 613.51 166.984 614.631C165.686 615.864 164.18 616.078 162.499 616.483C161.51 618.158 162.525 620.001 161.275 621.386C159.74 621.306 158.407 620.813 157.191 621.813C157.037 622.954 156.893 623.787 157.165 624.925C158.099 625.131 158.888 625.134 159.834 625.128C161.168 625.119 162.457 625.152 163.444 626.203C164.224 627.033 164.565 628.332 164.353 629.442C164.113 630.697 163.117 632.158 162.062 632.876C161.298 633.395 160.539 633.436 159.654 633.512C159.509 633.493 159.363 633.47 159.217 633.454C156.865 633.188 153.642 634.509 151.63 633.701L151.323 632.989C152.038 631.998 152.231 631.846 152.285 630.645C151.281 629.7 150.837 629.478 149.503 629.201L146.993 628.654C149.316 624.113 151.541 619.525 153.667 614.889L158.547 611.609C158.619 609.235 159.14 606.148 157.346 604.297C156.779 603.711 156.214 603.589 155.401 603.578C152.773 603.545 149.823 606.773 148.05 608.464C147.432 605.137 147.246 601.303 145.826 598.253L144.926 597.661C141.83 598.368 139.616 602.431 137.769 604.813C135.578 603.196 132.495 600.62 129.548 601.187C128.465 601.395 127.799 602.19 127.42 603.17C126.645 605.171 126.873 607.423 125.236 609.006C121.481 609.958 117.673 607.767 113.964 607.337C111.406 607.04 108.687 608.024 106.208 607.205C105.741 606.577 105.471 606.499 105.559 605.648C106.036 601.036 111.337 597.075 113.973 593.592L108.799 589.259C111.529 585.941 115.051 583.476 116.094 579.087C115.952 578.474 116.045 578.051 115.438 577.716C112.783 576.251 107.093 578.21 104.419 579.144L102.978 579.634C102.955 576.935 102.911 574.249 103.087 571.554C100.71 571.591 97.999 571.972 95.836 570.875C95.37 570.237 94.984 570.025 95.058 569.181C95.276 566.722 97.629 564.263 99.105 562.372L92.47 560.537C88.461 562.974 84.717 564.454 80.163 565.574L80.88 559.007C74.228 563.911 72.17 568.746 66.692 573.545C64.827 570.361 63.435 567.561 60.809 564.924C58.976 566.006 57.271 567.29 55.091 567.39C53.903 566.864 53.399 566.581 52.972 565.288C52.262 563.133 52.267 560.341 52.092 558.063C49.9646 558.496 47.8253 558.861 45.674 559.156C44.613 573.715 45.489 588.953 45.492 603.589C45.499 638.103 46.054 672.742 45.452 707.247L45.517 800.399C79.73 799.076 136.162 818.259 165.816 835.316C182.054 844.656 196.219 856.682 210.733 868.392C215.484 872.225 220.783 875.583 225.256 879.727C226.757 881.117 228.182 882.503 228.307 884.67C224.221 884.063 220.225 881.644 216.59 879.719C197.829 869.785 183.768 857.863 166.473 846.357C148.848 834.632 128.209 824.745 107.915 818.669C100.251 816.374 92.33 814.78 84.524 813.045C71.816 810.22 58.808 807.765 45.751 807.44C45.517 833.928 45.108 860.558 45.574 887.043C45.683 899.803 46.408 912.887 45.543 925.601C98.047 923.154 148.3 907.712 199.747 898.742C216.215 895.871 232.858 893.868 249.451 891.864C268.252 889.594 287.562 888.695 305.088 880.79C300.252 881.765 295.398 882.639 290.525 883.412C266.212 887.429 248.609 887.961 227.626 873.459C221.73 869.385 216.245 864.703 210.413 860.521C245.011 857.829 278.927 850.341 313.292 845.962C339.866 842.576 366.767 841.839 393.38 838.729C423.474 835.212 451.096 828.48 479.932 819.51C478.081 819.216 476.132 818.935 474.463 818.032C469.576 815.388 465.176 810.975 460.651 807.699C453.55 802.559 445.816 798.119 438.079 794.011C448.403 794.64 458.736 794.872 469.078 794.708C479.42 794.543 489.741 793.982 500.04 793.025C536.572 789.278 572.398 780.35 608.541 774.102C615.834 772.841 623.039 771.022 630.341 769.865C637.437 768.74 644.751 768.297 651.897 767.518C657.995 766.853 664.321 765.976 670.462 766.022C681.444 766.105 688.885 771.691 698.781 775.151C703.621 776.843 708.626 777.35 713.706 777.801C725.949 778.889 738.38 779.024 750.663 779.588C761.588 780.09 773.004 781.337 783.903 780.428C794.938 779.507 806.008 776.792 816.89 774.729C820.328 774.077 828.888 773.426 831.373 771.347C828.566 769.3 816.685 768.478 812.74 767.983C797.192 766.03 780.36 762.737 764.689 764.327C747.534 766.067 730.932 771.886 713.493 771.669C695.226 771.441 685.015 759.918 664.999 761.044C658.759 761.394 652.53 762.186 646.293 762.637C641.989 762.949 637.481 762.905 633.227 763.609C627.611 764.539 622.336 767.076 616.612 767.55C608.079 768.257 599.443 766.061 591.02 767.256C585.166 768.086 579.392 770.203 573.676 771.703C567.961 773.204 561.999 773.774 556.103 773.861C542.344 774.066 528.514 771.891 514.972 769.611C510.305 768.826 505.78 767.009 501.045 766.873C493.65 766.66 487.237 770.477 480.024 770.756C475.937 770.914 471.859 769.111 467.77 768.899C462.374 768.619 456.927 770.088 451.515 769.564C448.872 769.309 446.343 767.731 443.708 767.702C439.875 767.659 435.952 768.397 432.108 768.577C426.705 768.831 421.276 768.154 415.862 768.301C408.618 768.498 401.382 769.657 394.134 769.526L393.417 769.509C388.544 766.755 383.945 763.348 379.118 760.466C393.984 751.953 408.78 753.096 424.681 757.702C432.559 759.984 440.098 762.265 448.399 761.845C462.199 761.147 475.191 753.96 489.06 754.724C500.594 755.359 511.196 761.062 522.756 761.605C534.64 762.162 546.072 758.112 557.92 758.066C571.694 758.012 585.17 761.402 598.999 761.09C602.605 761.037 606.187 760.72 609.746 760.139C615.613 759.153 621.343 757.643 626.935 755.61C633.768 753.2 641.444 749.366 648.679 748.871C655.415 748.41 662.817 752.496 669.168 754.546C673.958 756.092 678.945 757.315 683.942 757.961C690.842 758.854 697.981 759.186 704.914 758.463C710.78 757.851 716.797 756.639 722.709 756.849C731.715 757.171 740.056 760.766 749.225 760.769C764.091 760.774 778.803 757.366 793.678 756.698C800.61 756.395 807.543 756.373 814.476 756.631C821.599 756.893 828.91 757.597 836.004 756.729C842.622 755.919 849.059 753.58 855.442 751.74C863.291 749.477 871.57 748.092 879.75 748.04C892.795 747.958 905.533 751.5 918.366 753.374C931.132 755.239 944.246 755.937 957.131 756.56C961.734 756.782 968.007 757.74 972.522 756.767C968.258 755.662 963.594 755.751 959.22 755.168C947.824 753.648 936.362 751.979 925.02 750.108C913.72 748.244 902.558 744.323 891.259 742.968C888.109 742.6 884.949 742.39 881.778 742.337C878.607 742.284 875.442 742.39 872.282 742.654C857.832 743.912 844.482 750.367 830.187 751.528C825.181 751.935 819.992 751.431 814.978 751.227C806.43 750.881 797.812 750.645 789.271 751.263C775.37 752.268 761.786 756.663 747.772 756.086C738.629 755.709 731.253 751.152 722.979 750.7C717.167 750.383 711.221 751.89 705.504 752.748C703.34 753.051 701.167 753.271 698.986 753.406C696.805 753.541 694.622 753.591 692.437 753.556C690.252 753.521 688.071 753.402 685.896 753.198C683.72 752.994 681.555 752.706 679.402 752.334C668.892 750.447 657.22 741.582 647.922 741.862C639.755 742.108 630.989 747.131 623.384 749.94C617.502 752.113 611.196 753.71 604.942 754.303C592.211 755.51 580.077 752.572 567.478 751.93C555.795 751.335 543.792 753.155 532.202 754.567C528.597 755.006 525.064 755.274 521.442 754.876C510.254 753.648 499.891 747.766 488.511 747.474C472.049 747.052 457.024 757.033 440.521 755.126C432.3 754.176 424.924 750.458 416.948 748.588C401.032 744.857 387.051 748.059 373.305 756.508C366.368 751.648 359.478 746.47 352.231 742.09C336.599 732.644 317.211 726.027 298.876 725.721C301.293 722.683 302.651 718.921 305.362 716.088C310.011 711.232 315.529 710.33 318.679 703.674C318.7 698.753 317.14 693.831 317.759 688.932C319.089 678.413 330.488 671.515 333.07 660.859C334.825 653.616 330.13 647.505 330.713 640.471C331.348 632.798 338.18 628.263 339.508 621.086C340.231 617.181 339.131 613.411 339.351 609.535C339.648 604.306 342.747 600.254 341.943 594.727C341.045 588.55 337.31 583.122 337.581 576.695C337.86 570.037 342.271 565.043 342.838 558.582C343.129 555.263 342.345 551.55 341.896 548.246C343.522 545.414 345.369 542.502 346.584 539.468C347.59 536.954 347.982 534.478 347.963 531.779C347.902 523.04 342.526 498.884 338.931 490.5C340.052 486.172 341.389 481.871 341.167 477.345C340.845 470.799 337.686 464.993 337.8 458.125C337.935 449.98 341.685 442.697 342.18 434.82C342.543 429.044 339.623 423.075 339.311 417.212C338.855 408.653 341.175 400.075 340.004 391.521C338.646 381.613 333.092 372.121 332.163 362.117C331.332 353.172 335.647 344.255 335.155 335.158C334.906 330.57 332.067 327.073 331.253 322.665C330.597 319.108 331.99 315.15 331.735 311.496C331.318 305.526 329.087 299.747 328.706 293.755C328.368 288.432 331.066 283.585 330.641 278.326C330.384 275.157 329.482 271.951 328.881 268.823C327.63 262.324 326.333 255.51 325.662 248.934C324.965 242.098 326.284 235.134 325.653 228.248C322.538 194.249 313.488 144.663 298.931 113.783C295.465 106.432 290.492 99.9451 286.546 92.8602C293.096 93.6041 299.755 94.1471 306.045 96.2339C306.886 96.5148 307.719 96.8147 308.545 97.1338C309.372 97.4529 310.191 97.7907 311.002 98.1473C311.813 98.5038 312.616 98.8788 313.41 99.2721C314.204 99.6655 314.988 100.077 315.763 100.506C316.538 100.935 317.303 101.382 318.058 101.847C318.813 102.311 319.556 102.792 320.289 103.291C321.022 103.789 321.743 104.304 322.452 104.836C323.161 105.367 323.857 105.915 324.541 106.478C325.225 107.041 325.896 107.62 326.553 108.214C327.21 108.808 327.854 109.417 328.483 110.04C329.113 110.664 329.728 111.302 330.328 111.953C330.929 112.605 331.514 113.27 332.083 113.949C332.653 114.628 333.207 115.319 333.745 116.022C334.283 116.726 334.805 117.442 335.31 118.17C335.815 118.898 336.304 119.637 336.776 120.387C337.247 121.137 337.701 121.898 338.138 122.669C349.443 142.392 354.777 168.042 359.963 190.135C381.567 282.163 390.492 377.071 398.878 471.057C401.405 499.376 403.537 527.668 406.439 555.961C407.181 563.196 411.257 611.61 413.01 614.673C413.664 615.814 414.126 616.109 415.349 616.496C416.73 616.115 417.435 615.455 418.104 614.175C418.889 612.675 419.27 610.994 419.34 609.309C419.588 603.376 418.784 596.945 418.433 591.001C417.349 572.624 415.424 554.25 413.806 535.912C408.049 473.587 401.439 411.352 393.978 349.208C391.11 326.171 388.016 303.164 384.697 280.187C381.613 258.799 377.387 237.413 372.989 216.255C368.364 194.011 362.906 171.978 355.267 150.562C352.143 141.801 346.742 132.07 344.196 123.767C349.231 127.971 353.474 139.485 355.95 145.729C358.016 150.94 360.367 156.064 362.174 161.371C370.861 186.882 376.007 214.112 380.965 240.563C388.726 283.064 394.924 325.791 399.559 368.745L413.54 490.621L420.091 555.019C421.09 564.193 421.34 575.242 424.099 584.045C424.951 586.761 425.978 589.379 428.625 590.745C429.445 590.742 429.906 590.878 430.633 590.423C432.807 589.063 433.796 586.016 434.241 583.625C435.024 579.423 434.786 574.845 434.783 570.579C434.778 563.093 434.652 555.547 433.828 548.101C432.629 537.268 430.525 526.419 429.674 515.561C429.308 510.891 430.443 506.219 429.902 501.549C429.159 495.149 426.955 488.956 426.417 482.515C425.801 475.145 428.28 468.108 427.958 460.757C427.315 446.109 422.636 430.589 421.17 415.713C420.242 406.296 421.906 396.876 420.347 387.431C419.431 381.887 417.174 378.169 414.084 373.608C413.935 366.441 413.473 361.662 410.167 355.201C411.775 349.508 411.388 346.324 409.594 340.762C412.934 330.436 412.826 317.62 408.918 307.396C407.667 304.121 405.289 301.113 404.601 297.646C403.406 291.625 406.19 285.596 405.513 279.558C404.999 274.977 401.89 271.393 400.822 267C398.652 258.076 397.591 248.637 395.776 239.598C387.902 200.384 370.075 140.776 342.339 111.758C336.787 105.949 330.004 101.518 323.345 97.0991C338.378 96.5247 356.942 101.406 369.982 108.881C424.812 140.314 444.937 273.488 454.674 331.233C459.003 356.908 463.939 382.655 467.012 408.52C467.558 413.113 467.387 417.713 467.613 422.322C467.92 428.572 468.998 434.822 469.53 441.062C469.89 445.297 469.7 449.73 470.29 453.92C470.747 457.172 472.876 460.024 473.361 463.316C475.214 475.889 476.382 488.666 477.838 501.299C479.197 513.09 480.856 524.833 482.319 536.61C484.993 558.145 485.044 582.892 489.36 603.792C490.429 608.969 492.582 614.003 493.96 619.123C493.697 619.784 493.452 620.453 493.227 621.129C492.036 624.636 491.877 628.358 491.706 632.029C491.162 643.713 492.387 649.479 497.424 660.067C495.911 664.403 495.309 668.134 495.698 672.696C496.222 678.856 498.397 690.974 503.327 695.084C504.172 695.024 504.081 695.215 504.558 694.56C509.664 687.563 504.879 642.661 504.082 631.501C502.009 598.308 499.379 565.159 496.191 532.054C492.084 491.119 487.067 450.296 481.142 409.585C475.509 368.117 468.302 326.925 459.519 286.008C454.096 261.78 447.346 237.408 439.376 213.901C436.383 205.074 433.406 196.175 430.158 187.44C428.389 182.686 426.209 178.113 425.129 173.117L425.428 173.758C429.264 178.846 434.606 194.164 437.09 200.678C454.696 246.853 464.9 295.496 473.402 344.039C479.376 376.596 484.371 409.302 488.387 442.157C493.09 478.897 497.878 515.561 501.114 552.472C503.446 581.098 506.127 609.691 509.158 638.251C510.078 647.256 511.044 671.223 514.479 677.993C514.95 678.921 514.64 678.606 515.708 678.925C516.038 678.376 516.1 678.339 516.302 677.619C518.524 669.669 513.302 617.176 512.377 605.791C507.035 537.825 499.184 470.15 488.824 402.766C477.292 328.79 461.152 240.118 427.021 173.134C425.759 170.532 419.432 158.822 419.732 156.867C429.819 171.634 439.187 193.774 445.613 210.751C469.072 272.724 481.573 337.869 491.721 403.138C499.766 454.225 506.261 505.509 511.205 556.99C514.41 588.85 516.697 620.67 521.523 652.347C522.532 658.967 522.702 666.847 524.798 673.09C526.947 661.221 525.722 648.465 524.131 636.577C526.01 639.915 527.651 643.366 529.055 646.93C530.459 650.494 531.612 654.137 532.515 657.86C534.674 666.65 535.392 674.871 540.076 682.848C544.329 677.045 544.561 671.568 543.509 664.603C542.74 659.505 540.659 654.873 539.427 649.91C538.294 645.35 538.01 641.28 536.344 636.766C537.565 632.624 538.18 628.521 537.853 624.197C537.175 615.252 532.652 607.28 531.564 598.476C530.827 592.507 532.312 586.316 531.997 580.278C531.506 570.884 528.844 562.062 527.485 552.844C526.837 548.446 527.308 543.837 526.534 539.484C526.324 538.299 525.867 537.267 525.299 536.212C524.481 534.693 523.234 533.093 522.841 531.402C521.306 524.793 521.37 516.923 520.624 510.114C518.976 495.068 517.049 480.038 515.189 465.016C512.288 441.582 508.747 418.296 505.482 394.917C504.264 386.193 503.833 377.223 502.31 368.572C501.44 363.635 499.519 358.895 498.639 353.961C497.453 347.307 497.754 340.39 496.376 333.756C495.776 330.872 493.787 328.314 492.9 325.499C491.853 322.173 492.421 318.343 491.475 314.961C490.283 310.702 487.547 306.939 486.491 302.597C485.422 298.202 485.66 293.508 484.545 289.13C483.571 285.308 482.054 281.621 481.072 277.795C479.679 272.361 478.869 266.811 477.351 261.395C461.904 206.314 437.028 151.352 392.389 113.924C409.393 120.523 425.804 127.741 440.476 138.782C474.956 164.73 501.727 217.802 518.836 256.563C529.33 280.337 537.533 305.043 545.249 329.832C569.712 408.427 584.385 489.423 597.431 570.579L610.342 649.172C612.577 662.595 613.816 676.56 617.629 689.637C618.1 687.362 618.525 685.123 618.554 682.79C618.639 675.814 615.629 666.171 622.654 661.386C625.248 659.618 628.698 659.626 631.654 660.301C635.49 661.176 639.404 664.06 641.46 667.414C642.047 668.372 642.549 669.42 643 670.449C644.837 664.774 646.797 659.313 652.43 656.323C656.32 654.257 660.86 654.314 664.949 655.766C669.412 657.351 673.355 660.595 675.394 664.913C675.597 665.334 675.779 665.763 675.938 666.202C676.097 666.641 676.234 667.087 676.347 667.54C676.46 667.993 676.55 668.45 676.617 668.913C676.684 669.375 676.727 669.839 676.746 670.306C676.765 670.772 676.76 671.238 676.731 671.705C676.702 672.171 676.649 672.634 676.573 673.095C676.496 673.556 676.397 674.011 676.274 674.461C676.151 674.912 676.005 675.355 675.836 675.79C674.558 679.029 672.574 680.68 669.721 682.478C673.342 682.707 678.561 682.834 681.251 685.666C682.02 686.475 682.434 687.202 682.402 688.364C682.269 693.21 675.202 695.057 674.341 698.683C677.305 698.978 680.46 697.699 683.264 696.803L683.949 697.046C688.37 698.659 692.214 701.269 694.189 705.717C695.892 709.554 694.607 713.831 696.128 717.319L696.911 717.365C700.282 713.389 702.649 708.567 706.347 704.846C710.045 703.71 713.323 703.108 716.969 704.925C720.113 706.493 721.56 709.472 723.031 712.487C723.518 712.124 723.35 712.376 723.457 711.749C723.871 709.313 724.676 707.456 726.761 705.995C728.746 704.605 731.125 704.298 733.461 704.787C736.562 705.437 739.207 707.141 740.937 709.811C743.432 713.658 744.161 718.868 742.993 723.286C742.434 725.398 741.509 727.434 740.629 729.429C747.593 727.371 756.758 721.808 763.906 725.47C767.209 727.162 769.033 730.004 770.805 733.139C774.766 730.035 778.462 727.419 783.8 727.975C787.344 728.343 790.364 730.262 792.535 733.037C794.8 735.931 795.625 739.056 796.404 742.579C800.812 737.357 805.123 731.757 812.506 731.17C817.113 730.804 820.831 732.205 824.243 735.252C825.825 736.666 826.778 738.225 827.608 740.154C830.524 738.752 833.004 738.045 836.251 737.73C850.291 736.367 865.172 737.305 879.302 737.214C912.162 737.113 945.019 737.368 977.873 737.977L978.015 637.522C978.003 627.701 977.63 617.868 977.73 608.05C978.071 585.015 978.179 561.978 978.053 538.94C978.061 528.637 978.699 518.041 978.141 507.782C960.192 513.435 952.075 522.552 936.544 530.804C927.179 535.781 916.766 537.698 908.37 544.592C900.131 551.356 894.18 561.17 886.796 568.91C891.016 558.902 897.173 549.803 901.35 539.774C888.229 545.364 875.679 555.397 870.291 568.854C868.459 573.428 867.187 578.266 865.842 583.003C872.186 578.185 878.937 575.608 885.745 571.712C879.392 579.482 872.038 588.803 863.452 594.113C860.005 596.245 855.645 597.13 852.558 599.811C843.456 607.716 832.885 626.993 827.077 637.709C829.138 623.479 830.56 600.149 842.535 590.847C846.809 587.528 852.906 587.088 856.731 583.811C861.949 579.339 865.937 560.726 871.878 553.21C876.731 547.07 884.833 544.859 890.793 540.118C896.613 535.488 901.065 529.024 905.839 523.361C907.897 520.919 910.199 518.42 912.879 516.651C920.465 511.646 938.795 506.587 947.931 503.697C938.491 512.208 925.597 516.387 915.993 524.637C912.858 527.33 910.364 530.527 907.812 533.756C917.562 531.623 927.995 529.737 936.956 525.209C952.035 517.589 958.244 504.452 978.019 505.529L978.019 460.558C968.423 463.163 958.895 465.972 949.23 468.317C933.552 474.415 916.766 478.27 900.441 482.253C894.877 483.61 888.724 485.659 883.042 486.13C878.332 487.297 873.615 488.435 868.891 489.542C848.796 495.415 827.667 497.855 807.07 501.249C802.859 501.904 798.64 502.507 794.413 503.056L789.99 503.82C783.012 507.926 776.703 513.138 770.997 518.878C764.849 525.064 755.51 539.394 747.618 542.342C741.312 544.697 733.454 543.925 726.853 543.916C722.789 544.371 719.129 545.132 715.399 546.872C709.365 549.687 704.037 554.351 698.701 558.298C690.837 564.117 682.765 569.991 674.342 574.987C671.31 576.748 668.23 578.42 665.102 580.004C661.974 581.589 658.804 583.083 655.591 584.487C652.378 585.89 649.127 587.201 645.84 588.419C642.552 589.637 639.232 590.76 635.88 591.789C626.741 594.517 617.136 596.527 608.327 600.216C607.01 593.195 605.914 586.14 604.674 579.105C603.949 574.986 602.718 570.534 602.527 566.372C599.25 541.891 594.599 517.673 590.144 493.388C583.365 456.439 576.235 419.746 567.274 383.245C561.173 358.396 555.159 332.417 545.849 308.56C552.083 301.207 558.071 292.765 559.507 283.007C560.062 279.232 559.958 275.388 560.685 271.641C567.414 266.916 573.481 263.36 575.709 254.809C575.08 252.485 574.529 250.102 573.753 247.824C577.78 244.049 581.501 240.385 581.825 234.504C582.115 229.251 579.509 224.431 575.972 220.724C570.467 214.952 563.229 212.654 556.288 209.144C551.452 206.698 546.802 203.819 542.239 200.9Z" fill="#415A77"></path>
<path d="M540.645 223.868C539.814 223.968 539.218 224.155 538.435 224.429C538.085 225.014 537.698 225.28 537.89 225.992C538.723 229.079 543.581 231.542 546.221 233.053L547.745 233.203L548.367 232.639C547.479 228.93 543.689 225.908 540.645 223.868Z" fill="#F77F00"></path>
<path d="M528.577 204.677C527.591 204.524 526.908 204.658 525.942 204.88C525.176 206.012 525.405 205.887 525.6 207.146C526.824 208.895 528.614 210.297 530.246 211.652C534.5 215.183 539.179 218.177 543.342 221.829C548.96 226.756 554.061 232.762 560.167 237.047C561.561 235.814 563.157 234.377 563.381 232.405C563.85 228.283 562.439 223.575 559.94 220.308C553.296 211.624 539.058 206.243 528.577 204.677Z" fill="#F77F00"></path>
<path d="M472.52 154.056L470.943 154.052L470.595 154.682C472.044 156.96 474.563 158.664 476.667 160.313C483.767 165.879 491.383 170.24 499.482 174.148C503.586 176.129 508.068 177.848 511.895 180.305C515.454 182.591 518.468 185.814 521.806 188.421C525.331 191.174 529.169 193.591 532.75 196.3L533.609 196.728L534.352 196.298C535.154 192.48 530.842 184.589 529.025 181.163C527.726 178.716 526.112 175.347 523.821 173.732C515.74 168.032 505.805 166.899 496.777 163.5C488.591 160.419 480.961 156.581 472.52 154.056Z" fill="#F77F00"></path>
<path d="M152.244 806.704C150.028 806.485 147.718 806.626 145.489 806.635C158.087 811.494 170.927 814.696 183.296 820.394C196.488 826.471 209.046 835.296 222.708 840.1C226.094 841.29 229.126 840.753 232.621 840.382L239.3 839.605C221.815 821.7 176.966 808.474 152.244 806.704Z" fill="#F77F00"></path>
<path d="M181.394 89.5438C180.198 89.4364 180.061 89.1612 179.066 89.9278C180.924 94.0594 207.484 105.091 214.141 112.66C211.42 111.956 206.706 110.173 204.031 110.771C203.84 111.618 203.767 111.565 203.907 112.434C205.228 120.628 222.424 121.032 228.359 124.183C232.99 126.641 237.406 131.291 241.401 134.716C243.939 137.199 246.395 139.627 249.311 141.668C248.281 138.282 246.856 135.156 245.2 132.031C237.712 117.904 223.125 98.3896 206.655 94.3237C202.528 93.305 198.057 93.2324 193.843 92.6205C189.574 92.0005 185.508 90.8081 181.394 89.5438Z" fill="#F77F00"></path>
<path d="M198.413 61.1897C186.678 59.817 174.982 63.5073 163.298 63.9279C143.421 64.6433 123.34 60.5825 103.726 64.6733C123.27 67.6098 143.071 69.473 162.757 71.1767C172.594 72.028 182.913 72.2849 192.648 73.8366C201.055 75.1769 208.59 79.8692 217.018 81.4662C227.178 83.3912 237.372 82.2914 246.366 88.2788C256.099 95.6586 262.202 106.033 270.1 115.118C274.521 120.203 279.528 124.232 284.927 128.226C282.683 117.257 278.198 110.47 271.499 101.677C276.372 103.901 280.052 106.489 284.059 110.042C281.299 103.481 277.7 97.1154 273.287 91.5229C265.38 81.5036 255.345 76.7488 242.645 75.8643C238.282 75.5604 233.675 75.696 229.52 74.1659C217.242 69.6457 213.758 63.0343 198.413 61.1897Z" fill="#F77F00"></path>
<path d="M228.307 884.67C224.221 884.063 220.225 881.644 216.59 879.719C197.829 869.785 183.768 857.863 166.473 846.357C148.848 834.632 128.209 824.745 107.915 818.669C100.251 816.374 92.33 814.78 84.524 813.045C71.816 810.22 58.808 807.765 45.751 807.44C45.517 833.928 45.108 860.558 45.574 887.043C58.582 891.811 67.819 897.298 78.961 905.385C73.168 893.871 65.605 884.102 56.055 875.531C67.806 877.229 79.023 879.75 90.075 884.232C97.197 887.121 104.022 890.732 111.26 893.325C99.052 877.757 76.161 863.642 58.126 856.097C82.264 854.396 109.207 873.601 128.634 886.548C113.031 862.298 85.919 848.602 61.322 835.37C86.951 835.984 128.465 851.13 150.374 864.852C159.152 870.348 166.007 877.061 174.184 882.357C175.766 883.382 177.412 884.461 179.324 884.04C179.151 880.836 173.454 873.891 171.551 871.002C178.392 874.46 184.193 878.812 191.599 881.194C185.475 871.393 174.125 863.375 164.481 857.291C161.861 855.637 158.843 854.331 156.386 852.491L156.584 852.259C162.207 852.194 196.2 875.187 203.852 879.536C210.256 883.176 220.925 886.7 228.307 884.67Z" fill="#F77F00"></path>
<path d="M52.0919 558.063C49.9646 558.496 47.8253 558.861 45.674 559.156C44.613 573.715 45.4889 588.953 45.4919 603.589C45.4989 638.103 46.054 672.742 45.452 707.247C49.8433 709.369 54.4012 711.035 59.1259 712.244C55.3299 734.668 55.5579 756.174 59.7059 778.514C60.4529 782.536 61.0979 788.361 63.3989 791.771C63.9899 792.646 64.3039 792.834 65.2369 793.217C66.1749 792.602 65.9719 792.983 66.1929 791.937C67.3419 786.487 65.065 778.22 64.517 772.52C63.069 757.467 62.0329 729.194 66.2299 715.033C78.0909 721.987 89.8679 728.98 100.112 738.255C107.577 723.818 118.04 710.515 132.439 702.568C120.934 713.306 112.533 726.914 105.844 741.09C106.295 742.209 106.488 743.151 106.674 744.347C106.91 745.863 107.259 746.713 108.057 748.009C108.8 749.071 109.832 750.485 111.193 750.806C112.418 751.094 112.712 750.92 113.658 750.265L114.142 748.973C115.486 748.83 116.186 748.874 117.33 749.677C117.973 750.128 118.551 750.748 119.107 751.301C119.829 752.151 120.157 752.484 121.248 752.76C122.675 752.321 123.337 751.017 124.164 749.86C137.686 751.937 151.411 754.715 164.547 758.567C142.27 765.702 113.742 781.432 102.668 803.116C101.928 804.565 101.304 806.027 100.762 807.561C106.529 803.157 111.7 798.026 117.283 793.395C131.021 782.001 147.699 771.261 165.122 766.879C187.344 775.682 201.009 781.817 219.188 798.048L218.595 797.751L219.217 798.316C213.575 794.933 208.198 791.172 202.374 788.081C201.383 787.558 200.383 787.055 199.373 786.571C198.363 786.087 197.344 785.622 196.317 785.177C195.289 784.732 194.253 784.307 193.209 783.901C192.165 783.496 191.114 783.11 190.055 782.744C188.996 782.379 187.931 782.034 186.86 781.709C185.788 781.384 184.71 781.08 183.627 780.796C182.543 780.512 181.454 780.249 180.361 780.007C179.268 779.765 178.17 779.544 177.068 779.344C175.966 779.143 174.861 778.964 173.752 778.806C172.643 778.648 171.532 778.511 170.418 778.396C169.304 778.281 168.188 778.186 167.07 778.113C165.953 778.04 164.834 777.989 163.715 777.958C162.595 777.928 161.475 777.919 160.355 777.932C159.236 777.944 158.117 777.978 156.998 778.033C155.879 778.088 154.762 778.165 153.646 778.263C152.531 778.36 151.417 778.479 150.306 778.62C155.404 780.558 160.701 781.942 165.869 783.684C172.305 785.855 178.654 788.432 184.897 791.104C202.133 798.481 218.444 808.596 234.627 818.023C239.342 820.771 244.226 823.434 248.689 826.581C253.731 830.134 259.172 836.055 264.834 838.244C269.35 839.989 283.758 839.808 288.137 837.894C288.552 837.713 288.682 837.511 288.948 837.205C288.795 836.893 288.715 836.52 288.458 836.286C285.387 831 280.45 826.154 276.189 821.757C260.502 805.57 245.336 793.378 224.895 783.64C241.421 784.69 268.252 800.009 283.29 808.228C289.836 811.805 296.658 816.23 304.033 817.721C296.485 807.655 285.255 800.705 274.975 793.708C289.885 797.453 308.248 807.768 321.791 815.361C328.305 819.012 334.67 823.004 341.646 825.733C350.551 829.216 360.849 830.987 370.375 831.783C364.312 826.517 357.436 822.135 350.821 817.597C341.274 811.047 331.698 804.459 322.402 797.556C332.866 801.899 342.885 806.568 353.782 809.838C364.478 813.047 375.615 814.932 386.215 818.393C392.603 820.48 398.989 824.931 405.765 825.313L406.501 824.965C405.916 823.272 389.636 813.653 386.982 811.252C394.929 813.529 427.632 823.511 433.17 820.964C433.955 820.604 433.854 820.263 434.115 819.511C431.655 810.61 398.436 795.451 399.501 791.429C402.153 791.313 404.342 792.499 406.691 793.605C416.413 798.182 456.473 820.596 464.162 819.094C464.248 817.95 463.96 817.735 463.449 816.745C463.135 816.231 463.152 816.228 462.702 815.676C458.918 811.029 452.507 807.694 447.538 804.397C437.71 797.878 428.216 791.119 417.575 785.931C403.263 778.952 388.299 774.007 374.162 766.494C357.253 757.507 342.483 745.973 324.434 738.914C311.832 733.985 299.244 731.249 285.753 730.443L285.914 730.827L284.921 730.351L285.104 729.666C285.495 729.394 286.155 728.946 286.501 728.652C288.533 726.922 287.6 724.606 288.199 722.309C288.575 720.868 289.558 720.308 290.751 719.601C291.766 719 292.948 718.445 293.642 717.452C294.574 716.118 294.637 714.446 294.196 712.945C293.501 712.454 292.885 712.161 292.086 711.89C290.864 711.477 291.027 711.352 290.364 710.323C289.953 707.89 291.027 705.867 291.894 703.638C289.421 701.051 287.213 698.028 283.55 697.285C282.697 697.608 282.004 697.833 281.1 698.004C279.123 696.444 279.539 694.702 278.449 692.661C275.511 687.159 267.434 692.604 263.097 691.113C263.665 689.783 265.193 687.054 265.037 685.65C264.591 681.641 258.05 679.883 255.531 677.372C256.984 676.142 258.682 674.899 259.956 673.495C260.89 672.467 260.887 671.898 260.737 670.578C259.894 669.441 259.176 668.988 257.912 668.322C257.099 667.893 256.604 667.791 256.098 667.017C257.244 666.054 258.218 665.234 258.605 663.701C258.903 662.522 258.754 661.413 258.008 660.431C257.401 659.632 256.793 659.498 255.846 659.317C252.847 658.742 254.433 656.531 252.176 654.877C251.234 654.186 250.061 653.971 248.95 654.317C246.455 655.092 244.875 657.522 243.609 659.631L243.27 660.208C243.061 659.106 243.04 659.564 243.281 658.425C243.88 655.601 240.31 655.431 239.745 652.936L240.945 651.707L240.906 650.419C239.348 648.919 236.85 648.37 235.034 647.002C234.911 646.909 234.79 646.813 234.668 646.718C232.793 647.577 227.239 651.601 225.655 651.479L224.255 649.794C224.254 648.237 224.381 646.411 224.073 644.894C223.804 643.573 223.298 643.092 222.219 642.389C220.929 642.338 220.251 642.502 219.06 643.042C218.038 643.505 217.968 643.606 216.792 643.527C215.936 641.887 217.025 639.43 216.77 637.465C216.154 636.456 215.668 635.747 214.485 635.368C208.077 633.31 209.281 641.795 205.987 643.583C205.331 641.395 205.505 639.191 204.203 637.222C202.197 636.424 201.411 637.969 199.703 637.58C197.051 636.978 195.953 634.557 192.976 634.485C188.544 636.877 188.524 640.942 187.246 645.182C185.548 645.385 184.136 645.329 183.021 646.739L183.421 649.029L182.979 649.405C181.483 648.122 179.817 645.573 177.795 645.247C171.737 644.272 173.178 650.493 170.186 653.034C169.664 652.676 169.86 652.878 169.487 652.34C168.983 651.61 168.553 650.908 167.846 650.35C165.245 648.298 162.535 650.942 159.635 651.307L159.353 650.323C160.051 648.383 161.709 647.026 163.127 645.582C161.711 645.059 160.18 644.728 159.265 643.449C160.21 640.931 163.275 640.788 164.042 638.143C163.411 635.98 161.279 634.887 159.469 633.818L159.654 633.512C159.509 633.493 159.363 633.47 159.217 633.454C156.865 633.188 153.642 634.509 151.63 633.701L151.323 632.989C152.038 631.998 152.231 631.846 152.285 630.645C151.281 629.7 150.837 629.478 149.503 629.201L146.993 628.654C149.316 624.113 151.541 619.525 153.667 614.889L158.547 611.609C158.619 609.235 159.14 606.148 157.346 604.297C156.779 603.711 156.214 603.589 155.401 603.578C152.773 603.545 149.823 606.773 148.05 608.464C147.432 605.137 147.246 601.303 145.826 598.253L144.926 597.661C141.83 598.368 139.616 602.431 137.769 604.813C135.578 603.196 132.495 600.62 129.548 601.187C128.465 601.395 127.799 602.19 127.42 603.17C126.645 605.171 126.873 607.423 125.236 609.006C121.481 609.958 117.673 607.767 113.964 607.337C111.406 607.04 108.687 608.024 106.208 607.205C105.741 606.577 105.471 606.499 105.559 605.648C106.036 601.036 111.337 597.075 113.973 593.592L108.799 589.259C111.529 585.941 115.051 583.476 116.094 579.087C115.952 578.474 116.045 578.051 115.438 577.716C112.783 576.251 107.093 578.21 104.419 579.144L102.978 579.634C102.955 576.935 102.911 574.249 103.087 571.554C100.71 571.591 97.9989 571.972 95.8359 570.875C95.3699 570.237 94.9839 570.025 95.0579 569.181C95.2759 566.722 97.6289 564.263 99.1049 562.372L92.4699 560.537C88.4609 562.974 84.717 564.454 80.163 565.574L80.8799 559.007C74.2279 563.911 72.17 568.746 66.692 573.545C64.827 570.361 63.435 567.561 60.809 564.924C58.976 566.006 57.2709 567.29 55.0909 567.39C53.9029 566.864 53.3989 566.581 52.9719 565.288C52.2619 563.133 52.2669 560.341 52.0919 558.063Z" fill="#F77F00"></path>
</g>
<defs>
<clipPath id="SvgjsClipPath1229">
<rect width="1024" height="1024" fill="white" transform="matrix(-1 0 0 1 1024 0)"></rect>
</clipPath>
</defs>
</svg><style>@media (prefers-color-scheme: light) { :root { filter: none; } }
@media (prefers-color-scheme: dark) { :root { filter: none; } }
</style></svg>