<?xml version="1.0" encoding="utf-8" ?>
<svg xmlns="http://www.w3.org/2000/svg" xmlns:xlink="http://www.w3.org/1999/xlink"  viewBox="0 0 1024 1024">
	<path fill="#415A77" transform="scale(2 2)" d="M100.351 97.6745L380.388 97.6814C397.611 97.6817 433.93 91.6967 436.633 116.031C437.11 120.321 436.851 124.836 436.849 129.157L436.835 374.791C436.835 380.363 437.177 386.073 436.877 391.626C436.133 405.381 424.367 414.71 410.936 414.04L107.246 414.057C90.2905 414.164 75.3659 411.625 75.1311 390.923C74.8985 370.42 75.1352 349.886 75.1348 329.381L75.1082 127.646C75.0833 109.442 79.8984 97.6311 100.351 97.6745ZM146.333 152.861L81.7172 152.861L81.7016 384.704C81.6995 387.597 81.5268 390.613 81.8552 393.487C83.4565 407.497 97.6688 407.279 107.936 407.269L366.875 407.252L400.977 407.267C421.011 407.272 430.527 408.663 430.416 382.89L430.389 152.861L146.333 152.861ZM221.718 122.992C217.531 123.709 216.55 128.346 219.729 129.926C222.071 131.09 236.671 130.326 239.946 130.322L364.612 130.319C367.846 129.017 368.489 124.1 364.534 123.206C361.321 122.481 353.372 122.993 349.621 122.993L231.557 122.974C228.312 122.97 224.947 122.772 221.718 122.992ZM180.325 113.814C164.088 115.698 166.797 137.885 182.28 137.189C200.474 133.607 192.199 110.733 180.325 113.814ZM143.699 113.814C127.866 118.401 132.892 139.114 147.881 137.189C162.895 132.215 159.44 112.477 143.699 113.814ZM109.063 113.814C93.2916 117.167 96.3451 137.831 111.42 137.189C126.352 133.847 124.346 112.894 109.063 113.814ZM403.065 115.267C399.193 116.707 399.689 119.384 399.763 122.992C391.32 122.065 390.675 129.199 399.763 129.407C399.74 133.378 400.157 135.931 404.753 135.759C407.237 134.284 406.848 131.896 406.488 129.407C414.451 129.908 417.657 122.175 406.488 122.992C406.85 119.505 407.39 115.943 403.065 115.267Z"/>
	<path fill="#415A77" transform="scale(2 2)" d="M109.063 381.25L132.188 381.229C135.83 381.225 139.751 380.934 143.363 381.292C147.421 381.694 147.716 385.669 144.695 387.65C139.624 388.902 114.427 389.097 109.155 387.831C105.473 386.947 106.319 382.677 109.063 381.25Z"/>
	<path fill="#415A77" transform="scale(2 2)" d="M219.475 381.25C223.097 381.517 226.71 381.283 230.337 381.259L248.883 381.238C252.217 381.259 265.649 382.378 258.214 388.498C256.056 388.678 253.812 388.521 251.644 388.515L227.361 388.515C224.587 388.519 215.717 389.734 216.758 384.796C217.119 383.081 218.047 382.167 219.475 381.25Z"/>
	<path fill="#415A77" transform="scale(2 2)" d="M329.61 381.25L352.681 381.255C355.903 381.253 359.386 380.923 362.575 381.166C367.144 381.515 368.952 386.207 364.612 388.83C358.227 389.283 335.605 389.542 329.817 388.589C325.486 387.876 326.888 382.986 329.61 381.25Z"/>
	<path fill="#415A77" transform="scale(2 2)" d="M109.063 367.313C110.951 367.583 113.09 367.353 115.003 367.335L165.131 367.306C170.471 367.305 177.184 366.59 182.279 368.218C185.65 369.296 185.003 373.369 182.28 374.713L119.561 374.731C116.484 374.742 106.038 376.362 106.641 370.959C106.828 369.277 107.8 368.314 109.063 367.313Z"/>
	<path fill="#415A77" transform="scale(2 2)" d="M338.436 367.313C345.259 367.316 401.356 366.852 403.115 367.747C404.514 368.459 406.143 370.962 405.042 372.493C403.295 374.92 397.206 374.48 394.495 374.713L355.937 374.712C352.052 374.713 330.993 375.751 328.346 373.506C326.789 372.186 326.836 368.973 328.461 367.722C329.85 366.653 336.407 367.229 338.436 367.313Z"/>
	<path fill="#415A77" transform="scale(2 2)" d="M219.475 367.313C225.469 367.607 231.615 367.324 237.629 367.318L273.645 367.299C278.145 367.298 288.192 366.813 292.07 367.481C296.661 368.272 295.857 372.956 292.508 374.713C290.274 375 287.765 374.753 285.502 374.742L233.313 374.708C230.352 374.71 222.157 375.195 219.917 374.616C215.505 373.476 215.788 368.994 219.475 367.313Z"/>
	<path fill="#415A77" transform="scale(2 2)" d="M258.214 274.497C261.263 274.34 264.369 274.488 267.426 274.489L371.179 274.484C374.653 274.478 382.309 273.964 385.355 274.772C389.294 275.818 388.37 280.204 385.414 281.729C383.088 281.978 380.589 281.764 378.242 281.755L276.522 281.74C272.003 281.747 262.693 282.251 258.629 281.534C254.476 280.801 255.365 276.203 258.214 274.497Z"/>
	<path fill="#415A77" transform="scale(2 2)" d="M258.214 260.641C261.343 260.313 264.81 260.616 267.966 260.622L375.201 260.646C379.397 260.646 400.918 260.083 403.293 260.865C407.098 262.119 406.12 265.954 403.065 267.252C399.593 267.489 396.013 267.26 392.527 267.259L271.628 267.226C267.949 267.23 262.178 267.919 258.748 267.175C254.733 266.304 254.851 262.103 258.214 260.641Z"/>
	<path fill="#415A77" transform="scale(2 2)" d="M115.94 304.516C119.902 304.338 123.936 304.493 127.903 304.502L165.889 304.499C189.811 304.471 185.291 312.358 185.286 332.651C185.284 341.941 187.894 355.911 175.561 358.386C172.845 358.744 169.993 358.421 167.256 358.401L128.127 358.401C120.499 358.408 108.618 360.46 106.468 350.312C105.74 346.874 105.891 318.17 106.364 314.243C106.997 308.995 110.697 305.367 115.94 304.516Z"/>
	<path fill="#415A77" transform="scale(2 2)" d="M229.155 304.516L269.303 304.511C295.649 304.482 295.818 302.182 295.855 331.877C295.869 342.931 298.948 357.62 283.312 358.386L245.338 358.394C233.907 358.397 216.098 362.174 215.724 345.491C215.597 339.842 215.772 334.155 215.749 328.499C215.702 317.172 213.04 304.486 229.155 304.516Z"/>
	<path fill="#415A77" transform="scale(2 2)" d="M335.909 304.516C354.408 304.334 378.177 303.293 396.399 304.554C409.93 305.49 406.428 322.096 406.462 331.324C406.501 341.858 409.806 355 396.944 359.15C394.042 359.421 390.974 359.172 388.051 359.166L348.884 359.158C322.602 359.231 326.119 355.046 326.137 332.645C326.145 323.433 322.954 306.506 335.909 304.516Z"/>
	<path fill="#415A77" transform="scale(2 2)" d="M390.436 179.873C401.981 179.738 410.571 180.005 410.917 193.908C411.185 204.694 410.936 215.555 410.928 226.348C410.912 251.181 411.145 252.546 388.044 252.514L275.166 252.498C265.049 252.601 254.284 252.893 254.049 239.709C253.869 229.645 254.13 219.551 254.099 209.483C254.024 184.717 250.927 179.852 280.361 179.863L390.436 179.873ZM376.409 186.46L278.088 186.451C271.638 186.448 261.687 184.135 260.432 192.971C259.808 197.366 260.362 205.307 260.381 210.103C260.402 215.56 258.765 241.218 262.113 244.246C265.126 246.97 271.02 246.175 274.715 246.173L288.992 246.147L386.823 246.165C401.136 246.184 404.826 249.21 404.787 232.997L404.75 220.275C404.725 211.523 405.115 202.633 404.756 193.897C404.392 185.037 397.931 186.367 391.073 186.443L376.409 186.46Z"/>
	<path fill="#415A77" transform="scale(2 2)" d="M111.42 179.873C114.452 179.394 117.97 179.842 121.065 179.854L197.099 179.879C208.203 179.877 218.37 179.857 229.437 179.378C243.595 178.766 240.367 198.631 240.364 207.566L240.365 258.413C240.418 267.323 240.876 277.566 229.155 277.783L148.359 277.777C135.994 277.778 123.586 278.03 111.227 277.836C98.9402 277.643 100.308 265.36 100.331 256.812L100.355 205.627C100.351 197.084 97.5529 178.417 111.42 179.873ZM181.353 222.338C175.02 229.283 168.886 236.43 162.691 243.5L154.541 252.958C153.577 254.083 152.463 255.138 151.569 256.31L208.875 256.31C217.203 256.32 225.544 256.429 233.87 256.31C223.161 245.503 213.777 233.33 203.22 222.338C195.067 229.809 189.719 225.421 181.353 222.338ZM134.079 236.235C128.133 240.308 115.084 251.207 109.887 256.31C115.727 256.492 121.594 256.292 127.437 256.31L140.11 256.31C144.362 252.745 147.465 247.915 151.569 244.179C141.013 242.733 136.36 236.579 134.079 236.235ZM192.452 198.095C178.086 199.451 178.182 217.129 192.452 218.779C206.352 216.556 204.923 197.979 192.452 198.095ZM149.469 218.779C137.596 222.31 140.743 236.843 151.569 236.235C162.726 233.293 161.026 218.091 149.469 218.779Z"/>
</svg>
