<?xml version="1.0" encoding="utf-8" ?>
<svg xmlns="http://www.w3.org/2000/svg" xmlns:xlink="http://www.w3.org/1999/xlink"  viewBox="0 0 1024 1024">
	<path fill="#415A77" transform="scale(2 2)" d="M185.547 180.255C191.99 179.878 192.679 186.944 187.533 189.38C181.125 189.81 180.255 182.949 185.547 180.255Z"/>
	<path fill="#415A77" transform="scale(2 2)" d="M202.098 180.255C208.752 180.029 209.236 186.76 204.051 189.38C198.192 190.263 196.183 182.989 202.098 180.255Z"/>
	<path fill="#415A77" transform="scale(2 2)" d="M168.816 180.255C175.397 179.979 176.407 187.022 170.834 189.38C165.756 190.444 164.312 185.021 166.563 181.495L168.816 180.255Z"/>
	<path fill="#415A77" transform="scale(2 2)" d="M360.056 265.598L367.622 265.598C367.546 269.481 367.484 273.349 367.622 277.232L360.056 277.232L360.056 265.598Z"/>
	<path fill="#415A77" transform="scale(2 2)" d="M315.588 303.629C320.213 303.608 327.123 303.133 331.454 303.697C336.281 304.325 336.559 308.711 332.841 310.981C328.048 311.609 311.035 313.036 313.259 305.814C313.638 304.584 314.521 304.157 315.588 303.629Z"/>
	<path fill="#415A77" transform="scale(2 2)" d="M302.896 320.315C307.633 320.278 331.437 319.588 333.98 321.121C337.344 323.15 335.074 327.571 331.188 327.915L311.506 327.911C308.793 327.913 305.885 328.219 303.202 327.963C296.762 327.349 296.975 321.293 302.896 320.315Z"/>
	<path fill="#415A77" transform="scale(2 2)" d="M255.863 320.315C263.443 319.955 277.929 319.657 285.476 320.352C291.497 320.906 291.121 327.518 285.47 327.915L254.715 327.915C249.972 325.386 250.956 321.184 255.863 320.315Z"/>
	<path fill="#415A77" transform="scale(2 2)" d="M143.229 218.343C153.79 216.98 155.773 226.431 155.72 234.617L145.987 234.617C141.741 234.637 137.491 234.691 133.246 234.617C133.124 226.36 133.89 220.189 143.229 218.343Z"/>
	<path fill="#415A77" transform="scale(2 2)" d="M274.77 410.25L278.06 410.25C271.403 417.277 262.928 424.391 255.863 431.465C252.841 428.328 249.806 425.28 246.615 422.31C242.242 418.515 237.663 414.52 233.756 410.25L274.77 410.25Z"/>
	<path fill="#415A77" transform="scale(2 2)" d="M241.486 303.629L279.614 303.626C280.643 303.626 311.199 300.856 303.308 309.685C301.33 311.898 291.672 311.006 288.75 310.981L246.032 310.979C242.675 310.97 228.847 311.752 227.169 310.254C225.623 308.873 225.759 306.134 227.219 304.751C229.182 302.891 238.492 303.662 241.486 303.629Z"/>
	<path fill="#415A77" transform="scale(2 2)" d="M204.051 150.999L206.48 150.999L206.48 158.87C196.408 159.038 186.304 158.864 176.229 158.858C153.942 158.845 151.954 159.332 151.955 184.265L151.971 210.681L148.689 209.828C147.19 209.526 145.633 209.733 144.117 209.828L144.11 183.432C144.111 178.167 143.488 171.993 144.663 166.869C148.634 149.554 164.271 150.987 177.581 150.989L204.051 150.999Z"/>
	<path fill="#415A77" transform="scale(2 2)" d="M360.056 289.243L367.622 289.243L367.638 372.375C367.66 404.205 356.96 400.929 331.48 400.901L181.418 400.91C174.195 400.913 162.068 402.235 155.72 398.485C149.989 395.444 146.973 390.117 145.987 383.771C163.032 382.292 179.95 374.271 188.439 358.718L330.07 358.728C362.354 358.734 360.054 355.026 360.047 326.922L360.056 289.243ZM254.715 370.298C241.358 373.408 244.573 391.852 258.254 390.24C270.103 386.539 268.303 369.065 254.715 370.298Z"/>
	<path fill="#415A77" transform="scale(2 2)" d="M141.656 242.851C173.512 240.649 201.2 269.085 198.708 300.809C197.647 314.316 195.733 320.973 204.61 332.624C206.757 335.442 213.402 340.661 213.46 343.672C213.603 351.162 203.009 349.261 198.368 349.241C193.164 349.219 187.923 349.389 182.725 349.221C175.996 362.89 163.528 373.279 147.703 373.752C129.33 376.086 113.354 365.25 105.149 349.221C96.3729 349.217 87.4194 349.632 78.6596 349.221C72.7749 344.4 77.1277 341.075 81.2246 336.982C92.5439 325.675 92.3245 317.379 90.8829 301.984C88.0033 271.231 111.377 245.399 141.656 242.851ZM124.136 349.221L114.14 349.221C123.899 365.632 144.283 370.155 160.919 361.856C166.028 358.981 171.095 354.603 173.675 349.221L124.136 349.221Z"/>
	<path fill="#415A77" transform="scale(2 2)" d="M323.27 82.3203C337 80.8676 345.081 90.1666 344.813 103.251L391.836 103.255C405.164 103.248 418.951 100.587 429.332 110.711C435.425 116.653 437.323 122.812 437.404 131.194L437.416 213.694C437.414 218.905 437.748 224.404 436.649 229.523C432.648 248.152 416.487 250.011 401.387 250.008L300.066 250.001C298.921 250.715 297.897 251.571 296.849 252.418C292.127 256.159 255.587 284.382 253.193 284.278C246.761 283.999 250.547 271.024 251.022 267.283C251.752 261.531 252.246 255.736 253.09 250.001C233.546 249.416 217.381 248.301 217.271 223.258L217.263 137.346C217.268 122.495 218.41 107.943 236.775 103.844C242.589 102.547 254.666 103.257 261.156 103.26L307.759 103.251C307.58 92.4912 312.373 84.8734 323.27 82.3203ZM290.567 177.498C284.566 178.254 283.047 186.345 289.969 186.802C294.747 187.117 299.667 186.953 304.46 186.955L402.683 186.952C409.846 185.832 409.138 178.169 401.102 177.57C396.944 177.26 392.66 177.5 388.484 177.504L290.567 177.498ZM318.486 206.574L299.083 206.559C295.272 206.558 285.141 205.016 285.297 211.271C285.455 217.634 295.659 215.895 299.745 215.899L374.562 215.898L394.586 215.896C399.01 215.894 407.452 217.731 407.44 210.946C407.43 205.15 392.266 206.563 388.709 206.575L318.486 206.574ZM288.75 148.755C285.078 150.73 283.937 156.346 288.678 157.683C291.691 158.532 301.881 158.025 305.707 158.024L384.018 158.014C390.486 158.015 397.671 158.423 404.043 158.015C407.768 155.438 408.936 149.316 402.977 148.843C397.529 148.411 391.814 148.751 386.334 148.751L310.008 148.749C302.967 148.749 295.774 148.444 288.75 148.755ZM325.079 90.5651C312.397 92.9196 314.192 112.685 327.591 110.922C340.497 109.15 338.816 89.6426 325.079 90.5651ZM261.725 200.108C246.77 201.308 249.499 221.759 261.725 220.399C278.384 218.472 270.322 197.942 261.725 200.108ZM260.023 171.543C247.348 174.814 248.662 191.156 262.776 191.364C275.399 189.879 273.388 170.512 260.023 171.543ZM259.164 142.803C246.779 147.319 250.171 163.894 263.573 162.074C275.934 157.87 273.237 141.886 259.164 142.803Z"/>
</svg>
