<svg id="fi_11502535" enable-background="new 0 0 512 512" viewBox="0 0 512 512" xmlns="http://www.w3.org/2000/svg"><path clip-rule="evenodd" d="m324.77 58.741c73.503 73.515 73.502 192.519 0 266.035-76.692 76.706-201.947 72.936-274.037-8.484-4.522-5.108-12.079-6.29-17.942-2.799-5.841 3.477-8.408 10.712-6.078 17.096 11.901 32.609 30.469 61.574 55.019 86.123 92.563 92.562 242.395 92.543 334.962-.001 92.594-92.572 92.6-242.399 0-334.969-24.549-24.541-53.517-43.114-86.121-55.016-6.374-2.327-13.619.248-17.093 6.077-3.495 5.864-2.323 13.426 2.792 17.95 2.913 2.575 5.749 5.239 8.498 7.988z" fill-rule="evenodd"></path></svg>