<svg viewBox="0 0 24 24" xmlns="http://www.w3.org/2000/svg"><g clip-rule="evenodd" fill-rule="evenodd"><path d="m12 9c-1.6569 0-3 1.3431-3 3s1.3431 3 3 3 3-1.3431 3-3-1.3431-3-3-3zm-5 3c0-2.76142 2.23858-5 5-5 2.7614 0 5 2.23858 5 5 0 2.7614-2.2386 5-5 5-2.76142 0-5-2.2386-5-5z"></path><path d="m19 12c0-.5523.4477-1 1-1h1c.5523 0 1 .4477 1 1s-.4477 1-1 1h-1c-.5523 0-1-.4477-1-1z"></path><path d="m2 12c0-.5523.44772-1 1-1h1c.55228 0 1 .4477 1 1s-.44772 1-1 1h-1c-.55228 0-1-.4477-1-1z"></path><path d="m12 19c.5523 0 1 .4477 1 1v1c0 .5523-.4477 1-1 1s-1-.4477-1-1v-1c0-.5523.4477-1 1-1z"></path><path d="m12 2c.5523 0 1 .44772 1 1v1c0 .55228-.4477 1-1 1s-1-.44772-1-1v-1c0-.55228.4477-1 1-1z"></path><path d="m16.9497 16.9497c.3906-.3905 1.0237-.3905 1.4143 0l.7071.7072c.3905.3905.3905 1.0236 0 1.4142-.3906.3905-1.0237.3905-1.4142 0l-.7072-.7071c-.3905-.3906-.3905-1.0237 0-1.4143z"></path><path d="m4.92893 4.92893c.39053-.39052 1.02369-.39052 1.41422 0l.7071.70711c.39053.39052.39053 1.02369 0 1.41421-.39052.39053-1.02369.39053-1.41421 0l-.70711-.7071c-.39052-.39053-.39052-1.02369 0-1.41422z"></path><path d="m7.05025 16.9497c.39053.3906.39053 1.0237 0 1.4143l-.7071.7071c-.39053.3905-1.02369.3905-1.41422 0-.39052-.3906-.39052-1.0237 0-1.4142l.70711-.7072c.39052-.3905 1.02369-.3905 1.41421 0z"></path><path d="m19.0711 4.92893c.3905.39053.3905 1.02369 0 1.41422l-.7071.7071c-.3906.39053-1.0237.39053-1.4143 0-.3905-.39052-.3905-1.02369 0-1.41421l.7072-.70711c.3905-.39052 1.0236-.39052 1.4142 0z"></path></g></svg>