<svg viewBox="0 0 465 479" fill="none" xmlns="http://www.w3.org/2000/svg">
<g clip-path="url(#clip0_1169_6)">
<path d="M450.9 325.1C460.7 312.6 465.4 299.2 464.8 285.4C464.2 270.2 457.4 258.3 451.8 251C458.3 234.8 460.8 209.3 439.1 189.5C423.2 175 396.2 168.5 358.8 170.3C332.5 171.5 310.5 176.4 309.6 176.6H309.5C304.5 177.5 299.2 178.6 293.8 179.8C293.4 173.4 294.5 157.5 306.3 121.7C320.3 79.1 319.5 46.5 303.7 24.7C287.1 1.8 260.6 0 252.8 0C245.3 0 238.4 3.1 233.5 8.8C222.4 21.7 223.7 45.5 225.1 56.5C211.9 91.9 174.9 178.7 143.6 202.8C143 203.2 142.5 203.7 142 204.2C132.8 213.9 126.6 224.4 122.4 233.6C116.5 230.4 109.8 228.6 102.6 228.6H41.6C18.6 228.6 0 247.3 0 270.2V432.7C0 455.7 18.7 474.3 41.6 474.3H102.6C111.5 474.3 119.8 471.5 126.6 466.7L150.1 469.5C153.7 470 217.7 478.1 283.4 476.8C295.3 477.7 306.5 478.2 316.9 478.2C334.8 478.2 350.4 476.8 363.4 474C394 467.5 414.9 454.5 425.5 435.4C433.6 420.8 433.6 406.3 432.3 397.1C452.2 379.1 455.7 359.2 455 345.2C454.6 337.1 452.8 330.2 450.9 325.1ZM41.6 447.3C33.5 447.3 27 440.7 27 432.7V270.1C27 262 33.6 255.5 41.6 255.5H102.6C110.7 255.5 117.2 262.1 117.2 270.1V432.6C117.2 440.7 110.6 447.2 102.6 447.2H41.6V447.3ZM425.3 313.4C421.1 317.8 420.3 324.5 423.5 329.7C423.5 329.8 427.6 336.8 428.1 346.4C428.8 359.5 422.5 371.1 409.3 381C404.6 384.6 402.7 390.8 404.7 396.4C404.7 396.5 409 409.7 402 422.2C395.3 434.2 380.4 442.8 357.8 447.6C339.7 451.5 315.1 452.2 284.9 449.8C284.5 449.8 284 449.8 283.5 449.8C219.2 451.2 154.2 442.8 153.5 442.7H153.4L143.3 441.5C143.9 438.7 144.2 435.7 144.2 432.7V270.1C144.2 265.8 143.5 261.6 142.3 257.7C144.1 251 149.1 236.1 160.9 223.4C205.8 187.8 249.7 67.7 251.6 62.5C252.4 60.4 252.6 58.1 252.2 55.8C250.5 44.6 251.1 30.9 253.5 26.8C258.8 26.9 273.1 28.4 281.7 40.3C291.9 54.4 291.5 79.6 280.5 113C263.7 163.9 262.3 190.7 275.6 202.5C282.2 208.4 291 208.7 297.4 206.4C303.5 205 309.3 203.8 314.8 202.9C315.2 202.8 315.7 202.7 316.1 202.6C346.8 195.9 401.8 191.8 420.9 209.2C437.1 224 425.6 243.6 424.3 245.7C420.6 251.3 421.7 258.6 426.7 263.1C426.702 263.102 426.706 263.106 426.713 263.113C427.146 263.53 437.308 273.321 437.8 286.4C438.2 295.3 434 304.4 425.3 313.4Z"/>
<path d="M41.6 447.3C33.5 447.3 27 440.7 27 432.7V270.1C27 262 33.6 255.5 41.6 255.5H102.6C110.7 255.5 117.2 262.1 117.2 270.1V432.6C117.2 440.7 110.6 447.2 102.6 447.2H41.6V447.3Z" />
<path d="M425.3 313.4C421.1 317.8 420.3 324.5 423.5 329.7C423.5 329.8 427.6 336.8 428.1 346.4C428.8 359.5 422.5 371.1 409.3 381C404.6 384.6 402.7 390.8 404.7 396.4C404.7 396.5 409 409.7 402 422.2C395.3 434.2 380.4 442.8 357.8 447.6C339.7 451.5 315.1 452.2 284.9 449.8H283.5C219.2 451.2 154.2 442.8 153.5 442.7H153.4L143.3 441.5C143.9 438.7 144.2 435.7 144.2 432.7V270.1C144.2 265.8 143.5 261.6 142.3 257.7C144.1 251 149.1 236.1 160.9 223.4C205.8 187.8 249.7 67.7 251.6 62.5C252.4 60.4 252.6 58.1 252.2 55.8C250.5 44.6 251.1 30.9 253.5 26.8C258.8 26.9 273.1 28.4 281.7 40.3C291.9 54.4 291.5 79.6 280.5 113C263.7 163.9 262.3 190.7 275.6 202.5C282.2 208.4 291 208.7 297.4 206.4C303.5 205 309.3 203.8 314.8 202.9C315.2 202.8 315.7 202.7 316.1 202.6C346.8 195.9 401.8 191.8 420.9 209.2C437.1 224 425.6 243.6 424.3 245.7C420.6 251.3 421.7 258.6 426.7 263.1L426.713 263.113C427.146 263.53 437.308 273.321 437.8 286.4C438.2 295.3 434 304.4 425.3 313.4Z" />
</g>
</svg>
