<svg viewBox="0 0 24 24" xmlns="http://www.w3.org/2000/svg"><path clip-rule="evenodd" d="m2 6.5c0-2.48528 2.01472-4.5 4.5-4.5h5.5c2.2091 0 4 1.79086 4 4v1c0 .55228-.4477 1-1 1s-1-.44772-1-1v-1c0-1.10457-.8954-2-2-2h-5.5c-1.38071 0-2.5 1.11929-2.5 2.5v11c0 1.3807 1.11929 2.5 2.5 2.5h5.5c1.1046 0 2-.8954 2-2v-1c0-.5523.4477-1 1-1s1 .4477 1 1v1c0 2.2091-1.7909 4-4 4h-5.5c-2.48528 0-4.5-2.0147-4.5-4.5zm16.2929 1.79289c.3905-.39052 1.0237-.39052 1.4142 0l3 3.00001c.3905.3905.3905 1.0237 0 1.4142l-3 3c-.3905.3905-1.0237.3905-1.4142 0s-.3905-1.0237 0-1.4142l1.2929-1.2929h-8.5858c-.5523 0-1-.4477-1-1s.4477-1 1-1h8.5858l-1.2929-1.29289c-.3905-.39053-.3905-1.02369 0-1.41422z" fill-rule="evenodd"></path></svg>