<svg xmlns="http://www.w3.org/2000/svg" xmlns:xlink="http://www.w3.org/1999/xlink" version="1.1" viewBox="0 0 512 512" xml:space="preserve">
<g>
  <g id="object_6_">
    <g>
      <path d="M255.999,512C114.614,511.999-0.001,397.383,0,255.998C0,188.103,26.971,122.989,74.98,74.98     c99.989-99.971,262.089-99.956,362.059,0.033c87.177,87.193,99.82,224.139,30.081,325.819     c3.229,13.319,21.796,50.976,38.887,81.044c4.829,8.496,1.857,19.298-6.638,24.127c-5.328,3.029-11.845,3.085-17.224,0.148     c-0.179-0.101-18.091-9.859-38.23-19.527c-28.226-13.549-40.43-17.189-45.051-18.167     C356.671,496.938,306.904,512.106,255.999,512z M255.999,35.389c-121.645,0-220.61,98.965-220.61,220.61     s98.965,220.611,220.61,220.611c45.231,0.097,89.386-13.799,126.409-39.783c9.909-6.943,23.155-3.859,35.991,0.506     c8.31,2.831,18.691,7.099,30.901,12.717c-5.691-11.766-10.051-21.759-12.979-29.751c-5.41-14.762-7.64-26.513-0.94-35.85     c26.914-37.413,41.342-82.362,41.23-128.449C476.611,134.354,377.645,35.389,255.999,35.389z"></path>
    </g>
  </g>
</g>















</svg>